<?xml version="1.0" encoding="UTF-8"?>
<!DOCTYPE svg PUBLIC "-//W3C//DTD SVG 1.1//EN" "http://www.w3.org/Graphics/SVG/1.1/DTD/svg11.dtd">
<svg xmlns="http://www.w3.org/2000/svg" version="1.1" width="4096px" height="4081px" style="shape-rendering:geometricPrecision; text-rendering:geometricPrecision; image-rendering:optimizeQuality; fill-rule:evenodd; clip-rule:evenodd" xmlns:xlink="http://www.w3.org/1999/xlink">
<g><path style="opacity:1" fill="#5a639d" d="M 2001.5,-0.5 C 2026.83,-0.5 2052.17,-0.5 2077.5,-0.5C 2463.72,8.08715 2819.39,115.92 3144.5,323C 3398.65,488.15 3606.82,698.65 3769,954.5C 4008.87,1343.32 4110.2,1765.99 4073,2222.5C 4069.89,2257.98 4065.72,2293.32 4060.5,2328.5C 4060.27,2333.24 4059.6,2337.91 4058.5,2342.5C 4057.84,2343.4 4057.18,2344.4 4056.5,2345.5C 4048.2,2338.03 4039.2,2331.53 4029.5,2326C 3913.33,2257.16 3797.66,2187.49 3682.5,2117C 3671.91,2110.36 3660.41,2106.53 3648,2105.5C 3636.58,2106.2 3626.08,2109.7 3616.5,2116C 3607.83,2122 3599.17,2128 3590.5,2134C 3588.98,2135.01 3587.31,2135.51 3585.5,2135.5C 3561.82,2121.34 3537.99,2107.34 3514,2093.5C 3457.36,2131.31 3400.86,2169.31 3344.5,2207.5C 3342.73,2203.96 3341.9,2199.96 3342,2195.5C 3340.66,1739.5 3339.33,1283.5 3338,827.5C 3337.96,761.482 3337.29,695.482 3336,629.5C 3332.75,604.781 3318.92,595.281 3294.5,601C 3288.93,602.783 3283.6,605.117 3278.5,608C 3247.11,627.028 3215.44,645.528 3183.5,663.5C 3183.74,662.209 3183.4,661.209 3182.5,660.5C 3182.83,634.491 3182.5,608.491 3181.5,582.5C 3180.89,582.624 3180.56,582.957 3180.5,583.5C 2821.16,795.502 2461.83,1007.5 2102.5,1219.5C 1757.53,1015.68 1412.53,811.845 1067.5,608C 1029.71,589.615 1010.04,601.448 1008.5,643.5C 1008.17,644.5 1007.83,645.5 1007.5,646.5C 1006.58,645.873 1005.58,645.539 1004.5,645.5C 968.924,625.26 933.591,604.593 898.5,583.5C 898.44,582.957 898.107,582.624 897.5,582.5C 896.5,637.163 896.167,691.829 896.5,746.5C 896.5,774.833 896.5,803.167 896.5,831.5C 894.999,1030.66 894.333,1230 894.5,1429.5C 894.668,1571.84 894.334,1714.17 893.5,1856.5C 892.074,1979.66 891.407,2103 891.5,2226.5C 837.107,2190.28 783.107,2153.45 729.5,2116C 716.341,2107.13 702.008,2104.13 686.5,2107C 678.483,2109.51 670.816,2112.84 663.5,2117C 652.965,2123.7 642.298,2130.2 631.5,2136.5C 630.583,2135.87 629.583,2135.54 628.5,2135.5C 608.126,2122.64 588.126,2109.14 568.5,2095C 566.635,2093.7 564.635,2093.37 562.5,2094C 428.035,2174.97 293.702,2256.13 159.5,2337.5C 409.833,2493.33 660.167,2649.17 910.5,2805C 913.4,2806.74 916.4,2808.24 919.5,2809.5C 923.333,2808.08 927,2806.41 930.5,2804.5C 932.582,2804.53 934.416,2803.86 936,2802.5C 965.718,2820.28 995.218,2838.44 1024.5,2857C 1045.99,2867.5 1066.99,2866.5 1087.5,2854C 1110.54,2839.82 1133.87,2826.15 1157.5,2813C 1246.9,2758.6 1336.57,2704.6 1426.5,2651C 1433.28,2646.55 1439.78,2641.72 1446,2636.5C 1456.13,2624.77 1461.13,2611.11 1461,2595.5C 1460.83,2185.5 1461.67,1775.83 1463.5,1366.5C 1534.48,1407.81 1605.48,1449.14 1676.5,1490.5C 1677.17,2067.17 1677.83,2643.83 1678.5,3220.5C 1800.83,3297.88 1922.16,3374.88 2042.5,3451.5C 2044.5,3445.84 2048.5,3442.17 2054.5,3440.5C 2081.6,3457.08 2108.6,3473.92 2135.5,3491C 2139.43,3497.26 2144.43,3502.6 2150.5,3507C 2154.23,3509.13 2158.23,3510.47 2162.5,3511C 2172.31,3512.07 2181.98,3511.41 2191.5,3509C 2194,3507.92 2196.33,3506.59 2198.5,3505C 2202.75,3500.48 2206.75,3495.81 2210.5,3491C 2319.53,3421.15 2428.86,3351.82 2538.5,3283C 2555.87,3270.75 2564.04,3253.92 2563,3232.5C 2563.33,2671.17 2563.67,2109.83 2564,1548.5C 2564.29,1543.61 2566.13,1539.44 2569.5,1536C 2639.56,1494.31 2709.89,1453.14 2780.5,1412.5C 2780.33,1802.83 2780.5,2193.17 2781,2583.5C 2906.63,2659.73 3032.79,2735.06 3159.5,2809.5C 3163.52,2807.49 3167.52,2805.49 3171.5,2803.5C 3201.07,2819.29 3230.07,2836.12 3258.5,2854C 3278.19,2866 3298.52,2867.34 3319.5,2858C 3350.53,2838.48 3381.87,2819.48 3413.5,2801C 3623.36,2669.24 3833.7,2538.24 4044.5,2408C 4045.17,2407.33 4045.83,2407.33 4046.5,2408C 4045.25,2409.83 4045.25,2411.66 4046.5,2413.5C 4046.5,2414.17 4046.5,2414.83 4046.5,2415.5C 3983.08,2745.92 3848.24,3042.59 3642,3305.5C 3491.02,3494.87 3313.18,3653.04 3108.5,3780C 2805.72,3964.08 2477.06,4064.25 2122.5,4080.5C 2067.17,4080.5 2011.83,4080.5 1956.5,4080.5C 1554.91,4061.36 1189.91,3937.2 861.5,3708C 736.223,3618.78 621.723,3516.61 518,3401.5C 338.089,3200.19 202.755,2971.19 112,2714.5C 43.032,2517.17 5.53204,2314.17 -0.5,2105.5C -0.5,2062.17 -0.5,2018.83 -0.5,1975.5C 12.4468,1602.52 118.28,1258.52 317,943.5C 405.801,806.621 508.968,680.787 626.5,566C 700.714,496.759 778.714,432.425 860.5,373C 1169.56,156.18 1513.23,33.1801 1891.5,4C 1928.3,1.75176 1964.96,0.251756 2001.5,-0.5 Z"/></g>
<g><path style="opacity:1" fill="#030406" d="M 898.5,583.5 C 933.591,604.593 968.924,625.26 1004.5,645.5C 1006.82,647.664 1009.49,649.331 1012.5,650.5C 1015.24,652.56 1018.24,654.226 1021.5,655.5C 1021.97,656.906 1022.97,657.573 1024.5,657.5C 1025.51,658.674 1026.85,659.34 1028.5,659.5C 1030.34,661.588 1032.67,662.921 1035.5,663.5C 1036.66,665.25 1038.33,666.25 1040.5,666.5C 1040.97,667.906 1041.97,668.573 1043.5,668.5C 1044.9,669.89 1046.57,670.89 1048.5,671.5C 1050.66,673.083 1053,674.416 1055.5,675.5C 1379.77,867.307 1704.1,1059.14 2028.5,1251C 2032.2,1252.85 2035.87,1254.68 2039.5,1256.5C 2044.52,1254.33 2049.18,1251.66 2053.5,1248.5C 2056.54,1247.32 2059.21,1245.65 2061.5,1243.5C 2063.67,1243.25 2065.34,1242.25 2066.5,1240.5C 2068.15,1240.34 2069.49,1239.67 2070.5,1238.5C 2072.37,1237.74 2074.04,1236.74 2075.5,1235.5C 2078.03,1234.4 2080.36,1233.07 2082.5,1231.5C 2083.71,1231.07 2084.71,1230.4 2085.5,1229.5C 2087.43,1228.89 2089.1,1227.89 2090.5,1226.5C 2092.43,1225.89 2094.1,1224.89 2095.5,1223.5C 2098,1222.42 2100.34,1221.08 2102.5,1219.5C 2461.83,1007.5 2821.16,795.502 3180.5,583.5C 3181.17,609.167 3181.83,634.833 3182.5,660.5C 3182.5,668.167 3182.5,675.833 3182.5,683.5C 3182.5,686.833 3182.5,690.167 3182.5,693.5C 3182.5,696.833 3182.5,700.167 3182.5,703.5C 3182.5,707.833 3182.5,712.167 3182.5,716.5C 3184.17,1249.16 3185.83,1781.83 3187.5,2314.5C 3223.41,2290.39 3259.07,2266.06 3294.5,2241.5C 3297.14,2240.19 3299.47,2238.52 3301.5,2236.5C 3303.85,2235.66 3305.85,2234.33 3307.5,2232.5C 3309.03,2232.57 3310.03,2231.91 3310.5,2230.5C 3311.71,2230.07 3312.71,2229.4 3313.5,2228.5C 3315.23,2227.97 3316.56,2226.97 3317.5,2225.5C 3319.43,2224.89 3321.1,2223.89 3322.5,2222.5C 3323.71,2222.07 3324.71,2221.4 3325.5,2220.5C 3327.8,2219.53 3329.8,2218.19 3331.5,2216.5C 3332.71,2216.07 3333.71,2215.4 3334.5,2214.5C 3335.5,2214.17 3336.17,2213.5 3336.5,2212.5C 3339.51,2211.33 3342.18,2209.66 3344.5,2207.5C 3400.86,2169.31 3457.36,2131.31 3514,2093.5C 3537.99,2107.34 3561.82,2121.34 3585.5,2135.5C 3587.34,2137.59 3589.67,2138.92 3592.5,2139.5C 3594.12,2141.32 3596.12,2142.65 3598.5,2143.5C 3599.51,2144.67 3600.85,2145.34 3602.5,2145.5C 3603.44,2146.97 3604.77,2147.97 3606.5,2148.5C 3607.96,2149.74 3609.63,2150.74 3611.5,2151.5C 3611.84,2152.34 3612.51,2152.67 3613.5,2152.5C 3614.9,2153.89 3616.57,2154.89 3618.5,2155.5C 3621.01,2157.92 3624.01,2159.59 3627.5,2160.5C 3724.93,2219.41 3822.26,2278.57 3919.5,2338C 3685.93,2482.94 3452.6,2628.11 3219.5,2773.5C 3216.49,2774.67 3213.82,2776.34 3211.5,2778.5C 3209.57,2779.11 3207.9,2780.11 3206.5,2781.5C 3204.97,2781.43 3203.97,2782.09 3203.5,2783.5C 3201.97,2783.43 3200.97,2784.09 3200.5,2785.5C 3197.67,2786.08 3195.34,2787.41 3193.5,2789.5C 3191.97,2789.43 3190.97,2790.09 3190.5,2791.5C 3188.57,2792.11 3186.9,2793.11 3185.5,2794.5C 3180.49,2797 3175.82,2800 3171.5,2803.5C 3167.52,2805.49 3163.52,2807.49 3159.5,2809.5C 3032.79,2735.06 2906.63,2659.73 2781,2583.5C 2780.5,2193.17 2780.33,1802.83 2780.5,1412.5C 2780.5,1409.5 2780.5,1406.5 2780.5,1403.5C 2780.5,1400.83 2780.5,1398.17 2780.5,1395.5C 2780.5,1394.17 2780.5,1392.83 2780.5,1391.5C 2780.5,1390.17 2780.5,1388.83 2780.5,1387.5C 2780.5,1386.5 2780.5,1385.5 2780.5,1384.5C 2780.5,1383.5 2780.5,1382.5 2780.5,1381.5C 2780.5,1380.83 2780.5,1380.17 2780.5,1379.5C 2780.5,1378.5 2780.5,1377.5 2780.5,1376.5C 2780.5,1375.5 2780.5,1374.5 2780.5,1373.5C 2780.5,1372.83 2780.5,1372.17 2780.5,1371.5C 2780.5,1370.17 2780.5,1368.83 2780.5,1367.5C 2780.5,1366.83 2780.5,1366.17 2780.5,1365.5C 2780.5,1363.83 2780.5,1362.17 2780.5,1360.5C 2780.5,1359.17 2780.5,1357.83 2780.5,1356.5C 2780.5,1353.17 2780.5,1349.83 2780.5,1346.5C 2780.67,1320.83 2780.5,1295.16 2780,1269.5C 2653.84,1343.25 2527.84,1417.25 2402,1491.5C 2401.83,2067.83 2401.33,2644.17 2400.5,3220.5C 2302.86,3282.17 2205.53,3344.17 2108.5,3406.5C 2105.49,3407.67 2102.82,3409.34 2100.5,3411.5C 2098.57,3412.11 2096.9,3413.11 2095.5,3414.5C 2093.97,3414.43 2092.97,3415.09 2092.5,3416.5C 2090.97,3416.43 2089.97,3417.09 2089.5,3418.5C 2088.51,3418.33 2087.84,3418.66 2087.5,3419.5C 2086.29,3419.93 2085.29,3420.6 2084.5,3421.5C 2082.97,3421.43 2081.97,3422.09 2081.5,3423.5C 2079.97,3423.43 2078.97,3424.09 2078.5,3425.5C 2077.51,3425.33 2076.84,3425.66 2076.5,3426.5C 2074.97,3426.43 2073.97,3427.09 2073.5,3428.5C 2071.33,3428.75 2069.66,3429.75 2068.5,3431.5C 2066.97,3431.43 2065.97,3432.09 2065.5,3433.5C 2063.57,3434.11 2061.9,3435.11 2060.5,3436.5C 2058.15,3437.34 2056.15,3438.67 2054.5,3440.5C 2048.5,3442.17 2044.5,3445.84 2042.5,3451.5C 1922.16,3374.88 1800.83,3297.88 1678.5,3220.5C 1677.83,2643.83 1677.17,2067.17 1676.5,1490.5C 1605.48,1449.14 1534.48,1407.81 1463.5,1366.5C 1459.54,1364.18 1455.54,1361.85 1451.5,1359.5C 1449.34,1357.92 1447,1356.58 1444.5,1355.5C 1443.71,1354.6 1442.71,1353.93 1441.5,1353.5C 1440.04,1352.26 1438.37,1351.26 1436.5,1350.5C 1435.49,1349.33 1434.15,1348.66 1432.5,1348.5C 1431.71,1347.6 1430.71,1346.93 1429.5,1346.5C 1428.04,1345.26 1426.37,1344.26 1424.5,1343.5C 1422.82,1341.99 1420.82,1340.99 1418.5,1340.5C 1417.34,1338.75 1415.67,1337.75 1413.5,1337.5C 1411.18,1335.34 1408.51,1333.67 1405.5,1332.5C 1370.15,1311.4 1334.65,1290.4 1299,1269.5C 1298.67,1707.5 1298.33,2145.5 1298,2583.5C 1193.4,2645.63 1089.23,2708.3 985.5,2771.5C 983.326,2771.75 981.659,2772.75 980.5,2774.5C 978.326,2774.75 976.659,2775.75 975.5,2777.5C 972.669,2778.08 970.336,2779.41 968.5,2781.5C 966.973,2781.43 965.973,2782.09 965.5,2783.5C 964.508,2783.33 963.842,2783.66 963.5,2784.5C 961.566,2785.11 959.899,2786.11 958.5,2787.5C 956.566,2788.11 954.899,2789.11 953.5,2790.5C 951.973,2790.43 950.973,2791.09 950.5,2792.5C 947.669,2793.08 945.336,2794.41 943.5,2796.5C 938.657,2798.42 934.323,2801.08 930.5,2804.5C 927,2806.41 923.333,2808.08 919.5,2809.5C 916.4,2808.24 913.4,2806.74 910.5,2805C 660.167,2649.17 409.833,2493.33 159.5,2337.5C 293.702,2256.13 428.035,2174.97 562.5,2094C 564.635,2093.37 566.635,2093.7 568.5,2095C 588.126,2109.14 608.126,2122.64 628.5,2135.5C 632.553,2138.88 636.886,2141.88 641.5,2144.5C 641.973,2145.91 642.973,2146.57 644.5,2146.5C 646.975,2149.24 649.975,2151.24 653.5,2152.5C 655.975,2155.24 658.975,2157.24 662.5,2158.5C 738.594,2210.72 814.927,2262.72 891.5,2314.5C 892.5,2295.85 892.833,2277.18 892.5,2258.5C 893.383,2124.5 893.716,1990.5 893.5,1856.5C 894.334,1714.17 894.668,1571.84 894.5,1429.5C 896.001,1230.34 896.667,1031 896.5,831.5C 896.5,803.167 896.5,774.833 896.5,746.5C 897.167,692.167 897.833,637.833 898.5,583.5 Z"/></g>
<g><path style="opacity:1" fill="#272b44" d="M 3180.5,583.5 C 3180.56,582.957 3180.89,582.624 3181.5,582.5C 3182.5,608.491 3182.83,634.491 3182.5,660.5C 3181.83,634.833 3181.17,609.167 3180.5,583.5 Z"/></g>
<g><path style="opacity:1" fill="#8db6df" d="M 906.5,597.5 C 1282.38,819.448 1658.38,1041.45 2034.5,1263.5C 2035.67,1988.17 2035.83,2712.83 2035,3437.5C 1918.67,3363.5 1802.33,3289.5 1686,3215.5C 1685.83,2638.93 1685.33,2062.43 1684.5,1486C 1553.09,1409.55 1421.92,1332.71 1291,1255.5C 1290.67,1696.5 1290.33,2137.5 1290,2578.5C 1166.92,2651.96 1044.08,2725.79 921.5,2800C 920.5,2800.67 919.5,2800.67 918.5,2800C 670.5,2646 422.5,2492 174.5,2338C 304.002,2258.75 434.002,2180.25 564.5,2102.5C 676.208,2177.68 787.542,2253.35 898.5,2329.5C 898.56,2330.04 898.893,2330.38 899.5,2330.5C 900.5,2258.17 900.833,2185.84 900.5,2113.5C 901.165,1657.67 902.499,1202 904.5,746.5C 905.167,696.833 905.833,647.167 906.5,597.5 Z"/></g>
<g><path style="opacity:1" fill="#3a4f7c" d="M 3172.5,597.5 C 3173.17,704.167 3173.83,810.833 3174.5,917.5C 3176.17,1316 3177.5,1714.67 3178.5,2113.5C 3178.17,2185.84 3178.5,2258.17 3179.5,2330.5C 3180.11,2330.38 3180.44,2330.04 3180.5,2329.5C 3291.46,2253.35 3402.79,2177.68 3514.5,2102.5C 3644.67,2180.75 3774.67,2259.25 3904.5,2338C 3656.07,2492.3 3407.57,2646.47 3159,2800.5C 3035.21,2727.36 2912.04,2653.36 2789.5,2578.5C 2789.83,2137.17 2789.5,1695.83 2788.5,1254.5C 2787.89,1254.62 2787.56,1254.96 2787.5,1255.5C 2656.25,1332.38 2525.08,1409.38 2394,1486.5C 2393.83,2062.83 2393.33,2639.17 2392.5,3215.5C 2276.42,3289.62 2160.25,3363.62 2044,3437.5C 2043.17,2712.83 2043.33,1988.17 2044.5,1263.5C 2420.27,1041.05 2796.27,819.047 3172.5,597.5 Z"/></g>
<g><path style="opacity:1" fill="#545d93" d="M 2102.5,1219.5 C 2100.34,1221.08 2098,1222.42 2095.5,1223.5C 1924.81,1123.05 1753.15,1021.55 1580.5,919C 1408.62,818.655 1236.95,717.322 1065.5,615C 1055.94,608.922 1045.61,606.755 1034.5,608.5C 1032.21,610.48 1029.54,611.647 1026.5,612C 1022.54,616.08 1019.7,620.914 1018,626.5C 1016.34,634.416 1015.51,642.416 1015.5,650.5C 1014.5,650.5 1013.5,650.5 1012.5,650.5C 1009.49,649.331 1006.82,647.664 1004.5,645.5C 1005.58,645.539 1006.58,645.873 1007.5,646.5C 1007.83,645.5 1008.17,644.5 1008.5,643.5C 1010.04,601.448 1029.71,589.615 1067.5,608C 1412.53,811.845 1757.53,1015.68 2102.5,1219.5 Z"/></g>
<g><path style="opacity:1" fill="#545d93" d="M 3344.5,2207.5 C 3342.18,2209.66 3339.51,2211.33 3336.5,2212.5C 3335.67,2203.68 3335.17,2194.68 3335,2185.5C 3333.65,1670.17 3331.98,1154.83 3330,639.5C 3330.01,615.16 3318.18,604.993 3294.5,609C 3287.11,611.531 3280.11,614.864 3273.5,619C 3243.64,637.097 3213.64,654.93 3183.5,672.5C 3183.5,669.5 3183.5,666.5 3183.5,663.5C 3215.44,645.528 3247.11,627.028 3278.5,608C 3283.6,605.117 3288.93,602.783 3294.5,601C 3318.92,595.281 3332.75,604.781 3336,629.5C 3337.29,695.482 3337.96,761.482 3338,827.5C 3339.33,1283.5 3340.66,1739.5 3342,2195.5C 3341.9,2199.96 3342.73,2203.96 3344.5,2207.5 Z"/></g>
<g><path style="opacity:1" fill="#4f578a" d="M 2095.5,1223.5 C 2094.1,1224.89 2092.43,1225.89 2090.5,1226.5C 2089.13,1226.66 2087.79,1226.49 2086.5,1226C 1748.2,1025.66 1409.53,825.498 1070.5,625.5C 1063.47,622.316 1056.47,619.149 1049.5,616C 1034.16,613.669 1025.33,620.169 1023,635.5C 1021.58,642.306 1021.08,648.973 1021.5,655.5C 1018.24,654.226 1015.24,652.56 1012.5,650.5C 1013.5,650.5 1014.5,650.5 1015.5,650.5C 1015.51,642.416 1016.34,634.416 1018,626.5C 1019.7,620.914 1022.54,616.08 1026.5,612C 1029.54,611.647 1032.21,610.48 1034.5,608.5C 1045.61,606.755 1055.94,608.922 1065.5,615C 1236.95,717.322 1408.62,818.655 1580.5,919C 1753.15,1021.55 1924.81,1123.05 2095.5,1223.5 Z"/></g>
<g><path style="opacity:1" fill="#50588c" d="M 3336.5,2212.5 C 3336.17,2213.5 3335.5,2214.17 3334.5,2214.5C 3333.5,2214.5 3332.5,2214.5 3331.5,2214.5C 3329.44,1689.5 3327.94,1164.5 3327,639.5C 3325.19,616.858 3313.36,608.358 3291.5,614C 3255.01,634.074 3219.01,654.907 3183.5,676.5C 3183.5,675.167 3183.5,673.833 3183.5,672.5C 3213.64,654.93 3243.64,637.097 3273.5,619C 3280.11,614.864 3287.11,611.531 3294.5,609C 3318.18,604.993 3330.01,615.16 3330,639.5C 3331.98,1154.83 3333.65,1670.17 3335,2185.5C 3335.17,2194.68 3335.67,2203.68 3336.5,2212.5 Z"/></g>
<g><path style="opacity:1" fill="#4d5485" d="M 3334.5,2214.5 C 3333.71,2215.4 3332.71,2216.07 3331.5,2216.5C 3330.5,2216.59 3329.67,2216.25 3329,2215.5C 3327.74,1690.53 3326.08,1165.53 3324,640.5C 3321.13,620.321 3309.8,612.988 3290,618.5C 3283.42,621.744 3276.92,625.078 3270.5,628.5C 3244.25,643.746 3218.25,659.413 3192.5,675.5C 3189.31,676.599 3186.31,677.932 3183.5,679.5C 3183.5,678.5 3183.5,677.5 3183.5,676.5C 3219.01,654.907 3255.01,634.074 3291.5,614C 3313.36,608.358 3325.19,616.858 3327,639.5C 3327.94,1164.5 3329.44,1689.5 3331.5,2214.5C 3332.5,2214.5 3333.5,2214.5 3334.5,2214.5 Z"/></g>
<g><path style="opacity:1" fill="#484f7d" d="M 3331.5,2216.5 C 3329.8,2218.19 3327.8,2219.53 3325.5,2220.5C 3324.67,2210.34 3324.17,2200.01 3324,2189.5C 3322.66,1675.5 3320.99,1161.5 3319,647.5C 3319.53,638.076 3316.36,630.242 3309.5,624C 3304.32,621.165 3298.99,620.831 3293.5,623C 3288.6,624.449 3283.93,626.449 3279.5,629C 3247.64,648.097 3215.64,666.93 3183.5,685.5C 3183.67,684.508 3183.34,683.842 3182.5,683.5C 3182.5,675.833 3182.5,668.167 3182.5,660.5C 3183.4,661.209 3183.74,662.209 3183.5,663.5C 3183.5,666.5 3183.5,669.5 3183.5,672.5C 3183.5,673.833 3183.5,675.167 3183.5,676.5C 3183.5,677.5 3183.5,678.5 3183.5,679.5C 3186.31,677.932 3189.31,676.599 3192.5,675.5C 3218.25,659.413 3244.25,643.746 3270.5,628.5C 3276.92,625.078 3283.42,621.744 3290,618.5C 3309.8,612.988 3321.13,620.321 3324,640.5C 3326.08,1165.53 3327.74,1690.53 3329,2215.5C 3329.67,2216.25 3330.5,2216.59 3331.5,2216.5 Z"/></g>
<g><path style="opacity:1" fill="#474e7b" d="M 2090.5,1226.5 C 2089.1,1227.89 2087.43,1228.89 2085.5,1229.5C 2084.13,1229.66 2082.79,1229.49 2081.5,1229C 1740.9,1027.49 1399.9,826.159 1058.5,625C 1051.23,621.332 1043.89,620.999 1036.5,624C 1032.9,626.708 1030.4,630.208 1029,634.5C 1027.77,640.438 1026.93,646.438 1026.5,652.5C 1026.44,654.64 1025.78,656.306 1024.5,657.5C 1022.97,657.573 1021.97,656.906 1021.5,655.5C 1021.08,648.973 1021.58,642.306 1023,635.5C 1025.33,620.169 1034.16,613.669 1049.5,616C 1056.47,619.149 1063.47,622.316 1070.5,625.5C 1409.53,825.498 1748.2,1025.66 2086.5,1226C 2087.79,1226.49 2089.13,1226.66 2090.5,1226.5 Z"/></g>
<g><path style="opacity:1" fill="#414873" d="M 3325.5,2220.5 C 3324.71,2221.4 3323.71,2222.07 3322.5,2222.5C 3320.96,2153.37 3320.3,2084.04 3320.5,2014.5C 3320.51,1962.82 3320.84,1911.16 3321.5,1859.5C 3320.77,1847.18 3320.27,1834.85 3320,1822.5C 3319.18,1721.16 3319.34,1619.82 3320.5,1518.5C 3319.77,1506.18 3319.27,1493.85 3319,1481.5C 3318.18,1379.82 3318.34,1278.16 3319.5,1176.5C 3318.77,1164.18 3318.27,1151.85 3318,1139.5C 3317.18,1037.49 3317.34,935.491 3318.5,833.5C 3317.01,797.688 3316.34,761.854 3316.5,726C 3316.51,701.811 3316.84,677.644 3317.5,653.5C 3316.95,645.498 3315.11,637.831 3312,630.5C 3307.52,625.677 3302.02,623.843 3295.5,625C 3287.66,627.254 3280.33,630.587 3273.5,635C 3243.67,652.833 3213.83,670.667 3184,688.5C 3183.52,687.552 3183.35,686.552 3183.5,685.5C 3215.64,666.93 3247.64,648.097 3279.5,629C 3283.93,626.449 3288.6,624.449 3293.5,623C 3298.99,620.831 3304.32,621.165 3309.5,624C 3316.36,630.242 3319.53,638.076 3319,647.5C 3320.99,1161.5 3322.66,1675.5 3324,2189.5C 3324.17,2200.01 3324.67,2210.34 3325.5,2220.5 Z"/></g>
<g><path style="opacity:1" fill="#3b4168" d="M 3322.5,2222.5 C 3321.1,2223.89 3319.43,2224.89 3317.5,2225.5C 3315.73,1700.83 3313.9,1176.17 3312,651.5C 3312,644.505 3309.84,638.338 3305.5,633C 3300.98,630.267 3296.32,629.934 3291.5,632C 3285.71,634.394 3280.05,637.06 3274.5,640C 3244.44,658.361 3214.11,676.194 3183.5,693.5C 3183.17,693.5 3182.83,693.5 3182.5,693.5C 3182.5,690.167 3182.5,686.833 3182.5,683.5C 3183.34,683.842 3183.67,684.508 3183.5,685.5C 3183.35,686.552 3183.52,687.552 3184,688.5C 3213.83,670.667 3243.67,652.833 3273.5,635C 3280.33,630.587 3287.66,627.254 3295.5,625C 3302.02,623.843 3307.52,625.677 3312,630.5C 3315.11,637.831 3316.95,645.498 3317.5,653.5C 3316.84,677.644 3316.51,701.811 3316.5,726C 3316.34,761.854 3317.01,797.688 3318.5,833.5C 3317.34,935.491 3317.18,1037.49 3318,1139.5C 3318.27,1151.85 3318.77,1164.18 3319.5,1176.5C 3318.34,1278.16 3318.18,1379.82 3319,1481.5C 3319.27,1493.85 3319.77,1506.18 3320.5,1518.5C 3319.34,1619.82 3319.18,1721.16 3320,1822.5C 3320.27,1834.85 3320.77,1847.18 3321.5,1859.5C 3320.84,1911.16 3320.51,1962.82 3320.5,2014.5C 3320.3,2084.04 3320.96,2153.37 3322.5,2222.5 Z"/></g>
<g><path style="opacity:1" fill="#383e62" d="M 2082.5,1231.5 C 2080.36,1233.07 2078.03,1234.4 2075.5,1235.5C 1739.89,1037.36 1404.22,839.19 1068.5,641C 1060.98,635.491 1052.65,633.491 1043.5,635C 1041.03,637.441 1039.2,640.274 1038,643.5C 1037,650.285 1036.17,656.952 1035.5,663.5C 1032.67,662.921 1030.34,661.588 1028.5,659.5C 1030.04,652.026 1031.88,644.359 1034,636.5C 1038.85,627.882 1046.01,625.382 1055.5,629C 1058.58,630.139 1061.58,631.472 1064.5,633C 1402.05,832.424 1739.38,1031.76 2076.5,1231C 2078.47,1231.5 2080.47,1231.66 2082.5,1231.5 Z"/></g>
<g><path style="opacity:1" fill="#353b5e" d="M 3317.5,2225.5 C 3316.56,2226.97 3315.23,2227.97 3313.5,2228.5C 3312.67,2219.01 3312.17,2209.34 3312,2199.5C 3310.66,1686.5 3309,1173.5 3307,660.5C 3307.15,653.822 3305.82,647.489 3303,641.5C 3302.1,640.299 3300.93,639.465 3299.5,639C 3296.17,638.333 3292.83,638.333 3289.5,639C 3284.38,641.06 3279.38,643.393 3274.5,646C 3244.44,664.361 3214.11,682.194 3183.5,699.5C 3183.5,697.5 3183.5,695.5 3183.5,693.5C 3214.11,676.194 3244.44,658.361 3274.5,640C 3280.05,637.06 3285.71,634.394 3291.5,632C 3296.32,629.934 3300.98,630.267 3305.5,633C 3309.84,638.338 3312,644.505 3312,651.5C 3313.9,1176.17 3315.73,1700.83 3317.5,2225.5 Z"/></g>
<g><path style="opacity:1" fill="#313655" d="M 2075.5,1235.5 C 2074.04,1236.74 2072.37,1237.74 2070.5,1238.5C 1793.72,1075.27 1517.06,911.775 1240.5,748C 1181.87,716.331 1124.54,682.665 1068.5,647C 1063.38,643.857 1057.88,641.691 1052,640.5C 1047.45,641.385 1044.45,644.052 1043,648.5C 1042.02,654.62 1041.19,660.62 1040.5,666.5C 1038.33,666.25 1036.66,665.25 1035.5,663.5C 1036.17,656.952 1037,650.285 1038,643.5C 1039.2,640.274 1041.03,637.441 1043.5,635C 1052.65,633.491 1060.98,635.491 1068.5,641C 1404.22,839.19 1739.89,1037.36 2075.5,1235.5 Z"/></g>
<g><path style="opacity:1" fill="#303454" d="M 3313.5,2228.5 C 3312.71,2229.4 3311.71,2230.07 3310.5,2230.5C 3309.67,2209.34 3309.17,2188 3309,2166.5C 3307.71,1661.83 3306.04,1157.17 3304,652.5C 3301.91,641.359 3295.74,638.193 3285.5,643C 3251.42,662.455 3217.59,682.288 3184,702.5C 3183.52,701.552 3183.35,700.552 3183.5,699.5C 3214.11,682.194 3244.44,664.361 3274.5,646C 3279.38,643.393 3284.38,641.06 3289.5,639C 3292.83,638.333 3296.17,638.333 3299.5,639C 3300.93,639.465 3302.1,640.299 3303,641.5C 3305.82,647.489 3307.15,653.822 3307,660.5C 3309,1173.5 3310.66,1686.5 3312,2199.5C 3312.17,2209.34 3312.67,2219.01 3313.5,2228.5 Z"/></g>
<g><path style="opacity:1" fill="#2c304d" d="M 3310.5,2230.5 C 3310.03,2231.91 3309.03,2232.57 3307.5,2232.5C 3306.67,2224.01 3306.17,2215.34 3306,2206.5C 3304.67,1750.5 3303.33,1294.5 3302,838.5C 3301.95,777.817 3301.28,717.151 3300,656.5C 3297.77,646.196 3291.94,643.696 3282.5,649C 3249.47,668.178 3216.47,687.345 3183.5,706.5C 3183.74,705.209 3183.4,704.209 3182.5,703.5C 3182.5,700.167 3182.5,696.833 3182.5,693.5C 3182.83,693.5 3183.17,693.5 3183.5,693.5C 3183.5,695.5 3183.5,697.5 3183.5,699.5C 3183.35,700.552 3183.52,701.552 3184,702.5C 3217.59,682.288 3251.42,662.455 3285.5,643C 3295.74,638.193 3301.91,641.359 3304,652.5C 3306.04,1157.17 3307.71,1661.83 3309,2166.5C 3309.17,2188 3309.67,2209.34 3310.5,2230.5 Z"/></g>
<g><path style="opacity:1" fill="#282d47" d="M 2066.5,1240.5 C 2065.34,1242.25 2063.67,1243.25 2061.5,1243.5C 1940.72,1171.89 1820.05,1100.06 1699.5,1028C 1689.92,1023.54 1680.59,1018.54 1671.5,1013C 1471.75,894.131 1271.75,775.798 1071.5,658C 1055.3,648.098 1047.63,652.598 1048.5,671.5C 1046.57,670.89 1044.9,669.89 1043.5,668.5C 1045.22,663.551 1046.39,658.218 1047,652.5C 1049.02,647.076 1052.85,645.242 1058.5,647C 1062.95,648.726 1067.29,650.726 1071.5,653C 1403.22,848.856 1734.89,1044.69 2066.5,1240.5 Z"/></g>
<g><path style="opacity:1" fill="#282d47" d="M 3307.5,2232.5 C 3305.85,2234.33 3303.85,2235.66 3301.5,2236.5C 3299.91,1711.17 3298.08,1185.83 3296,660.5C 3295.72,656.88 3293.88,654.38 3290.5,653C 3287.05,652.808 3283.72,653.475 3280.5,655C 3248.25,673.707 3216.08,692.541 3184,711.5C 3183.51,709.866 3183.34,708.199 3183.5,706.5C 3216.47,687.345 3249.47,668.178 3282.5,649C 3291.94,643.696 3297.77,646.196 3300,656.5C 3301.28,717.151 3301.95,777.817 3302,838.5C 3303.33,1294.5 3304.67,1750.5 3306,2206.5C 3306.17,2215.34 3306.67,2224.01 3307.5,2232.5 Z"/></g>
<g><path style="opacity:1" fill="#252840" d="M 2061.5,1243.5 C 2059.21,1245.65 2056.54,1247.32 2053.5,1248.5C 1928.03,1174.26 1802.7,1099.76 1677.5,1025C 1675.61,1024.03 1673.61,1023.36 1671.5,1023C 1474.25,905.213 1276.59,788.213 1078.5,672C 1073.84,669.422 1069.01,667.255 1064,665.5C 1059.59,666.577 1057.43,669.411 1057.5,674C 1057.16,675.03 1056.5,675.53 1055.5,675.5C 1053,674.416 1050.66,673.083 1048.5,671.5C 1047.63,652.598 1055.3,648.098 1071.5,658C 1271.75,775.798 1471.75,894.131 1671.5,1013C 1680.59,1018.54 1689.92,1023.54 1699.5,1028C 1820.05,1100.06 1940.72,1171.89 2061.5,1243.5 Z"/></g>
<g><path style="opacity:1" fill="#252840" d="M 3301.5,2236.5 C 3299.47,2238.52 3297.14,2240.19 3294.5,2241.5C 3293.67,2220.34 3293.17,2199 3293,2177.5C 3291.73,1675.83 3290.06,1174.16 3288,672.5C 3286.78,666.309 3283.28,664.476 3277.5,667C 3246.09,684.788 3214.92,702.955 3184,721.5C 3183.8,719.618 3183.3,717.952 3182.5,716.5C 3182.5,712.167 3182.5,707.833 3182.5,703.5C 3183.4,704.209 3183.74,705.209 3183.5,706.5C 3183.34,708.199 3183.51,709.866 3184,711.5C 3216.08,692.541 3248.25,673.707 3280.5,655C 3283.72,653.475 3287.05,652.808 3290.5,653C 3293.88,654.38 3295.72,656.88 3296,660.5C 3298.08,1185.83 3299.91,1711.17 3301.5,2236.5 Z"/></g>
<g><path style="opacity:1" fill="#242840" d="M 898.5,583.5 C 897.833,637.833 897.167,692.167 896.5,746.5C 896.167,691.829 896.5,637.163 897.5,582.5C 898.107,582.624 898.44,582.957 898.5,583.5 Z"/></g>
<g><path style="opacity:1" fill="#567089" d="M 906.5,597.5 C 905.833,647.167 905.167,696.833 904.5,746.5C 904.167,696.496 904.5,646.496 905.5,596.5C 906.107,596.624 906.44,596.957 906.5,597.5 Z"/></g>
<g><path style="opacity:1" fill="#22253b" d="M 2053.5,1248.5 C 2049.18,1251.66 2044.52,1254.33 2039.5,1256.5C 2035.87,1254.68 2032.2,1252.85 2028.5,1251C 1704.1,1059.14 1379.77,867.307 1055.5,675.5C 1056.5,675.53 1057.16,675.03 1057.5,674C 1057.43,669.411 1059.59,666.577 1064,665.5C 1069.01,667.255 1073.84,669.422 1078.5,672C 1276.59,788.213 1474.25,905.213 1671.5,1023C 1673.61,1023.36 1675.61,1024.03 1677.5,1025C 1802.7,1099.76 1928.03,1174.26 2053.5,1248.5 Z"/></g>
<g><path style="opacity:1" fill="#22253c" d="M 3294.5,2241.5 C 3259.07,2266.06 3223.41,2290.39 3187.5,2314.5C 3185.83,1781.83 3184.17,1249.16 3182.5,716.5C 3183.3,717.952 3183.8,719.618 3184,721.5C 3214.92,702.955 3246.09,684.788 3277.5,667C 3283.28,664.476 3286.78,666.309 3288,672.5C 3290.06,1174.16 3291.73,1675.83 3293,2177.5C 3293.17,2199 3293.67,2220.34 3294.5,2241.5 Z"/></g>
<g><path style="opacity:1" fill="#2e3f63" d="M 3172.5,597.5 C 3172.56,596.957 3172.89,596.624 3173.5,596.5C 3174.5,703.498 3174.83,810.498 3174.5,917.5C 3173.83,810.833 3173.17,704.167 3172.5,597.5 Z"/></g>
<g><path style="opacity:1" fill="#2c304d" d="M 2070.5,1238.5 C 2069.49,1239.67 2068.15,1240.34 2066.5,1240.5C 1734.89,1044.69 1403.22,848.856 1071.5,653C 1067.29,650.726 1062.95,648.726 1058.5,647C 1052.85,645.242 1049.02,647.076 1047,652.5C 1046.39,658.218 1045.22,663.551 1043.5,668.5C 1041.97,668.573 1040.97,667.906 1040.5,666.5C 1041.19,660.62 1042.02,654.62 1043,648.5C 1044.45,644.052 1047.45,641.385 1052,640.5C 1057.88,641.691 1063.38,643.857 1068.5,647C 1124.54,682.665 1181.87,716.331 1240.5,748C 1517.06,911.775 1793.72,1075.27 2070.5,1238.5 Z"/></g>
<g><path style="opacity:1" fill="#40466f" d="M 2085.5,1229.5 C 2084.71,1230.4 2083.71,1231.07 2082.5,1231.5C 2080.47,1231.66 2078.47,1231.5 2076.5,1231C 1739.38,1031.76 1402.05,832.424 1064.5,633C 1061.58,631.472 1058.58,630.139 1055.5,629C 1046.01,625.382 1038.85,627.882 1034,636.5C 1031.88,644.359 1030.04,652.026 1028.5,659.5C 1026.85,659.34 1025.51,658.674 1024.5,657.5C 1025.78,656.306 1026.44,654.64 1026.5,652.5C 1026.93,646.438 1027.77,640.438 1029,634.5C 1030.4,630.208 1032.9,626.708 1036.5,624C 1043.89,620.999 1051.23,621.332 1058.5,625C 1399.9,826.159 1740.9,1027.49 2081.5,1229C 2082.79,1229.49 2084.13,1229.66 2085.5,1229.5 Z"/></g>
<g><path style="opacity:1" fill="#2e3351" d="M 896.5,831.5 C 896.667,1031 896.001,1230.34 894.5,1429.5C 894.333,1230 894.999,1030.66 896.5,831.5 Z"/></g>
<g><path style="opacity:1" fill="#34476f" d="M 2787.5,1255.5 C 2787.56,1254.96 2787.89,1254.62 2788.5,1254.5C 2789.5,1695.83 2789.83,2137.17 2789.5,2578.5C 2788.83,2137.5 2788.17,1696.5 2787.5,1255.5 Z"/></g>
<g><path style="opacity:1" fill="#22263c" d="M 1405.5,1332.5 C 1405,1752.36 1404.16,2172.36 1403,2592.5C 1399.83,2599.67 1394.67,2604.83 1387.5,2608C 1282.83,2671 1178.17,2734 1073.5,2797C 1067.2,2801.07 1060.36,2803.57 1053,2804.5C 1050.07,2804.48 1047.24,2803.98 1044.5,2803C 1026.41,2792.21 1008.58,2781.04 991,2769.5C 989.275,2770.46 987.441,2771.13 985.5,2771.5C 1089.23,2708.3 1193.4,2645.63 1298,2583.5C 1298.33,2145.5 1298.67,1707.5 1299,1269.5C 1334.65,1290.4 1370.15,1311.4 1405.5,1332.5 Z"/></g>
<g><path style="opacity:1" fill="#22263c" d="M 2780.5,1346.5 C 2696.55,1394.62 2613.22,1443.78 2530.5,1494C 2518.09,1502.98 2510.92,1515.15 2509,1530.5C 2508,2097.18 2507,2663.84 2506,3230.5C 2502.4,3237.89 2496.9,3243.39 2489.5,3247C 2398.32,3303.51 2307.65,3360.85 2217.5,3419C 2207.22,3428.53 2196.22,3436.37 2184.5,3442.5C 2181,3443.72 2177.5,3443.72 2174,3442.5C 2169.45,3444.8 2165.12,3444.46 2161,3441.5C 2160.59,3441.96 2160.09,3442.29 2159.5,3442.5C 2154.86,3438.8 2149.86,3435.63 2144.5,3433C 2143.66,3431.99 2143.33,3430.82 2143.5,3429.5C 2132.26,3421.68 2120.59,3414.01 2108.5,3406.5C 2205.53,3344.17 2302.86,3282.17 2400.5,3220.5C 2401.33,2644.17 2401.83,2067.83 2402,1491.5C 2527.84,1417.25 2653.84,1343.25 2780,1269.5C 2780.5,1295.16 2780.67,1320.83 2780.5,1346.5 Z"/></g>
<g><path style="opacity:1" fill="#252840" d="M 1405.5,1332.5 C 1408.51,1333.67 1411.18,1335.34 1413.5,1337.5C 1413,1757.19 1412.17,2176.85 1411,2596.5C 1406.83,2604.67 1400.67,2610.83 1392.5,2615C 1283.33,2681.42 1173.66,2747.09 1063.5,2812C 1055.72,2815.19 1048.05,2814.86 1040.5,2811C 1020.86,2798.18 1000.86,2786.02 980.5,2774.5C 981.659,2772.75 983.326,2771.75 985.5,2771.5C 987.441,2771.13 989.275,2770.46 991,2769.5C 1008.58,2781.04 1026.41,2792.21 1044.5,2803C 1047.24,2803.98 1050.07,2804.48 1053,2804.5C 1060.36,2803.57 1067.2,2801.07 1073.5,2797C 1178.17,2734 1282.83,2671 1387.5,2608C 1394.67,2604.83 1399.83,2599.67 1403,2592.5C 1404.16,2172.36 1405,1752.36 1405.5,1332.5 Z"/></g>
<g><path style="opacity:1" fill="#282d47" d="M 1413.5,1337.5 C 1415.67,1337.75 1417.34,1338.75 1418.5,1340.5C 1417.67,1753.67 1417.17,2167 1417,2580.5C 1418.33,2593.85 1413.83,2604.68 1403.5,2613C 1290.5,2681.17 1177.16,2748.84 1063.5,2816C 1055.71,2818.22 1048.05,2817.89 1040.5,2815C 1019.25,2802.79 998.415,2789.96 978,2776.5C 977.329,2777.25 976.496,2777.59 975.5,2777.5C 976.659,2775.75 978.326,2774.75 980.5,2774.5C 1000.86,2786.02 1020.86,2798.18 1040.5,2811C 1048.05,2814.86 1055.72,2815.19 1063.5,2812C 1173.66,2747.09 1283.33,2681.42 1392.5,2615C 1400.67,2610.83 1406.83,2604.67 1411,2596.5C 1412.17,2176.85 1413,1757.19 1413.5,1337.5 Z"/></g>
<g><path style="opacity:1" fill="#2e3352" d="M 1418.5,1340.5 C 1420.82,1340.99 1422.82,1341.99 1424.5,1343.5C 1423.67,1756.67 1423.17,2170 1423,2583.5C 1423.35,2592.41 1421.35,2600.75 1417,2608.5C 1411.81,2614.17 1405.98,2619 1399.5,2623C 1293.68,2686.08 1188.01,2749.41 1082.5,2813C 1076.01,2816.08 1069.68,2819.41 1063.5,2823C 1053.43,2825.05 1043.77,2823.71 1034.5,2819C 1014.53,2806.35 994.533,2793.68 974.5,2781C 972.575,2781.13 970.575,2781.3 968.5,2781.5C 970.336,2779.41 972.669,2778.08 975.5,2777.5C 976.496,2777.59 977.329,2777.25 978,2776.5C 998.415,2789.96 1019.25,2802.79 1040.5,2815C 1048.05,2817.89 1055.71,2818.22 1063.5,2816C 1177.16,2748.84 1290.5,2681.17 1403.5,2613C 1413.83,2604.68 1418.33,2593.85 1417,2580.5C 1417.17,2167 1417.67,1753.67 1418.5,1340.5 Z"/></g>
<g><path style="opacity:1" fill="#353a5c" d="M 1424.5,1343.5 C 1426.37,1344.26 1428.04,1345.26 1429.5,1346.5C 1429,1763.69 1428.16,2181.02 1427,2598.5C 1423.14,2611.69 1414.98,2621.19 1402.5,2627C 1291,2693.92 1179.33,2760.59 1067.5,2827C 1057.37,2830.52 1047.37,2830.19 1037.5,2826C 1014.67,2813.09 992.333,2799.42 970.5,2785C 968.975,2783.99 967.308,2783.49 965.5,2783.5C 965.973,2782.09 966.973,2781.43 968.5,2781.5C 970.575,2781.3 972.575,2781.13 974.5,2781C 994.533,2793.68 1014.53,2806.35 1034.5,2819C 1043.77,2823.71 1053.43,2825.05 1063.5,2823C 1069.68,2819.41 1076.01,2816.08 1082.5,2813C 1188.01,2749.41 1293.68,2686.08 1399.5,2623C 1405.98,2619 1411.81,2614.17 1417,2608.5C 1421.35,2600.75 1423.35,2592.41 1423,2583.5C 1423.17,2170 1423.67,1756.67 1424.5,1343.5 Z"/></g>
<g><path style="opacity:1" fill="#3b4167" d="M 1429.5,1346.5 C 1430.71,1346.93 1431.71,1347.6 1432.5,1348.5C 1431.67,1761.33 1431.17,2174.33 1431,2587.5C 1430.72,2605.23 1422.89,2618.4 1407.5,2627C 1295.16,2694.84 1182.5,2762.17 1069.5,2829C 1058.83,2833.67 1048.17,2833.67 1037.5,2829C 1012.67,2814.31 988.001,2799.48 963.5,2784.5C 963.842,2783.66 964.508,2783.33 965.5,2783.5C 967.308,2783.49 968.975,2783.99 970.5,2785C 992.333,2799.42 1014.67,2813.09 1037.5,2826C 1047.37,2830.19 1057.37,2830.52 1067.5,2827C 1179.33,2760.59 1291,2693.92 1402.5,2627C 1414.98,2621.19 1423.14,2611.69 1427,2598.5C 1428.16,2181.02 1429,1763.69 1429.5,1346.5 Z"/></g>
<g><path style="opacity:1" fill="#252840" d="M 2780.5,1346.5 C 2780.5,1349.83 2780.5,1353.17 2780.5,1356.5C 2699.39,1403.22 2618.73,1450.72 2538.5,1499C 2526.08,1507.99 2518.92,1520.16 2517,1535.5C 2516.01,2101.87 2515.01,2668.2 2514,3234.5C 2510.22,3241.95 2504.72,3247.78 2497.5,3252C 2435.14,3291.85 2372.47,3331.18 2309.5,3370C 2278.34,3391.08 2246.68,3411.41 2214.5,3431C 2205.21,3437.65 2195.88,3444.32 2186.5,3451C 2182.18,3452.89 2177.68,3454.39 2173,3455.5C 2168.37,3454.4 2163.87,3452.9 2159.5,3451C 2140.53,3436.84 2120.86,3423.68 2100.5,3411.5C 2102.82,3409.34 2105.49,3407.67 2108.5,3406.5C 2120.59,3414.01 2132.26,3421.68 2143.5,3429.5C 2143.33,3430.82 2143.66,3431.99 2144.5,3433C 2149.86,3435.63 2154.86,3438.8 2159.5,3442.5C 2160.09,3442.29 2160.59,3441.96 2161,3441.5C 2165.12,3444.46 2169.45,3444.8 2174,3442.5C 2177.5,3443.72 2181,3443.72 2184.5,3442.5C 2196.22,3436.37 2207.22,3428.53 2217.5,3419C 2307.65,3360.85 2398.32,3303.51 2489.5,3247C 2496.9,3243.39 2502.4,3237.89 2506,3230.5C 2507,2663.84 2508,2097.18 2509,1530.5C 2510.92,1515.15 2518.09,1502.98 2530.5,1494C 2613.22,1443.78 2696.55,1394.62 2780.5,1346.5 Z"/></g>
<g><path style="opacity:1" fill="#414771" d="M 1432.5,1348.5 C 1434.15,1348.66 1435.49,1349.33 1436.5,1350.5C 1435.67,1765.33 1435.17,2180.33 1435,2595.5C 1432.66,2610.17 1425.16,2621.33 1412.5,2629C 1297.7,2698.07 1183.37,2766.4 1069.5,2834C 1058.82,2838.62 1048.15,2838.62 1037.5,2834C 1012.78,2819.19 988.109,2804.19 963.5,2789C 961.975,2787.99 960.308,2787.49 958.5,2787.5C 959.899,2786.11 961.566,2785.11 963.5,2784.5C 988.001,2799.48 1012.67,2814.31 1037.5,2829C 1048.17,2833.67 1058.83,2833.67 1069.5,2829C 1182.5,2762.17 1295.16,2694.84 1407.5,2627C 1422.89,2618.4 1430.72,2605.23 1431,2587.5C 1431.17,2174.33 1431.67,1761.33 1432.5,1348.5 Z"/></g>
<g><path style="opacity:1" fill="#484f7d" d="M 1436.5,1350.5 C 1438.37,1351.26 1440.04,1352.26 1441.5,1353.5C 1440.67,1767.67 1440.17,2182 1440,2596.5C 1437.68,2607.65 1432.84,2617.48 1425.5,2626C 1306.66,2698.32 1188.66,2769.32 1071.5,2839C 1065.73,2841.38 1059.73,2842.88 1053.5,2843.5C 1050.87,2843.22 1048.37,2842.55 1046,2841.5C 1045.67,2841.83 1045.33,2842.17 1045,2842.5C 1041.93,2841.14 1038.76,2839.97 1035.5,2839C 1021.21,2831.02 1007.21,2822.69 993.5,2814C 991.842,2810.83 989.175,2809.17 985.5,2809C 983.842,2805.83 981.175,2804.17 977.5,2804C 973.305,2801.07 968.972,2798.4 964.5,2796C 962.415,2794.96 960.748,2793.46 959.5,2791.5C 957.591,2790.65 955.591,2790.32 953.5,2790.5C 954.899,2789.11 956.566,2788.11 958.5,2787.5C 960.308,2787.49 961.975,2787.99 963.5,2789C 988.109,2804.19 1012.78,2819.19 1037.5,2834C 1048.15,2838.62 1058.82,2838.62 1069.5,2834C 1183.37,2766.4 1297.7,2698.07 1412.5,2629C 1425.16,2621.33 1432.66,2610.17 1435,2595.5C 1435.17,2180.33 1435.67,1765.33 1436.5,1350.5 Z"/></g>
<g><path style="opacity:1" fill="#4d5486" d="M 1441.5,1353.5 C 1442.71,1353.93 1443.71,1354.6 1444.5,1355.5C 1443.67,1768.67 1443.17,2182 1443,2595.5C 1442.16,2609 1436.66,2620.17 1426.5,2629C 1324.83,2691.17 1222.83,2752.84 1120.5,2814C 1103.46,2824.19 1086.12,2833.85 1068.5,2843C 1052.74,2847.78 1038.07,2845.45 1024.5,2836C 1002.5,2822.33 980.5,2808.67 958.5,2795C 956.091,2793.29 953.425,2792.46 950.5,2792.5C 950.973,2791.09 951.973,2790.43 953.5,2790.5C 955.591,2790.32 957.591,2790.65 959.5,2791.5C 960.748,2793.46 962.415,2794.96 964.5,2796C 968.972,2798.4 973.305,2801.07 977.5,2804C 981.175,2804.17 983.842,2805.83 985.5,2809C 989.175,2809.17 991.842,2810.83 993.5,2814C 1007.21,2822.69 1021.21,2831.02 1035.5,2839C 1038.76,2839.97 1041.93,2841.14 1045,2842.5C 1045.33,2842.17 1045.67,2841.83 1046,2841.5C 1048.37,2842.55 1050.87,2843.22 1053.5,2843.5C 1059.73,2842.88 1065.73,2841.38 1071.5,2839C 1188.66,2769.32 1306.66,2698.32 1425.5,2626C 1432.84,2617.48 1437.68,2607.65 1440,2596.5C 1440.17,2182 1440.67,1767.67 1441.5,1353.5 Z"/></g>
<g><path style="opacity:1" fill="#282d47" d="M 2780.5,1356.5 C 2780.5,1357.83 2780.5,1359.17 2780.5,1360.5C 2699.86,1407.48 2619.53,1454.98 2539.5,1503C 2528.77,1511.63 2522.6,1522.8 2521,1536.5C 2520.67,2096.5 2520.33,2656.5 2520,3216.5C 2521.55,3230.2 2517.05,3241.37 2506.5,3250C 2398,3319.08 2289.66,3388.42 2181.5,3458C 2178.83,3458.83 2176.16,3459.67 2173.5,3460.5C 2167.43,3459.4 2161.77,3457.23 2156.5,3454C 2137.09,3439.3 2116.75,3426.13 2095.5,3414.5C 2096.9,3413.11 2098.57,3412.11 2100.5,3411.5C 2120.86,3423.68 2140.53,3436.84 2159.5,3451C 2163.87,3452.9 2168.37,3454.4 2173,3455.5C 2177.68,3454.39 2182.18,3452.89 2186.5,3451C 2195.88,3444.32 2205.21,3437.65 2214.5,3431C 2246.68,3411.41 2278.34,3391.08 2309.5,3370C 2372.47,3331.18 2435.14,3291.85 2497.5,3252C 2504.72,3247.78 2510.22,3241.95 2514,3234.5C 2515.01,2668.2 2516.01,2101.87 2517,1535.5C 2518.92,1520.16 2526.08,1507.99 2538.5,1499C 2618.73,1450.72 2699.39,1403.22 2780.5,1356.5 Z"/></g>
<g><path style="opacity:1" fill="#525b90" d="M 1444.5,1355.5 C 1447,1356.58 1449.34,1357.92 1451.5,1359.5C 1450.67,1770 1450.17,2180.67 1450,2591.5C 1450.03,2599.32 1449.03,2606.99 1447,2614.5C 1443.28,2619.07 1440.28,2624.07 1438,2629.5C 1431.78,2634.72 1425.28,2639.55 1418.5,2644C 1305.52,2711.91 1190.52,2780.58 1073.5,2850C 1059.35,2856.18 1045.35,2855.85 1031.5,2849C 1003.33,2832.75 975.665,2815.75 948.5,2798C 946.975,2796.99 945.308,2796.49 943.5,2796.5C 945.336,2794.41 947.669,2793.08 950.5,2792.5C 953.425,2792.46 956.091,2793.29 958.5,2795C 980.5,2808.67 1002.5,2822.33 1024.5,2836C 1038.07,2845.45 1052.74,2847.78 1068.5,2843C 1086.12,2833.85 1103.46,2824.19 1120.5,2814C 1222.83,2752.84 1324.83,2691.17 1426.5,2629C 1436.66,2620.17 1442.16,2609 1443,2595.5C 1443.17,2182 1443.67,1768.67 1444.5,1355.5 Z"/></g>
<g><path style="opacity:1" fill="#586199" d="M 1451.5,1359.5 C 1455.54,1361.85 1459.54,1364.18 1463.5,1366.5C 1461.67,1775.83 1460.83,2185.5 1461,2595.5C 1461.13,2611.11 1456.13,2624.77 1446,2636.5C 1439.78,2641.72 1433.28,2646.55 1426.5,2651C 1336.57,2704.6 1246.9,2758.6 1157.5,2813C 1133.87,2826.15 1110.54,2839.82 1087.5,2854C 1066.99,2866.5 1045.99,2867.5 1024.5,2857C 995.218,2838.44 965.718,2820.28 936,2802.5C 934.416,2803.86 932.582,2804.53 930.5,2804.5C 934.323,2801.08 938.657,2798.42 943.5,2796.5C 945.308,2796.49 946.975,2796.99 948.5,2798C 975.665,2815.75 1003.33,2832.75 1031.5,2849C 1045.35,2855.85 1059.35,2856.18 1073.5,2850C 1190.52,2780.58 1305.52,2711.91 1418.5,2644C 1425.28,2639.55 1431.78,2634.72 1438,2629.5C 1440.28,2624.07 1443.28,2619.07 1447,2614.5C 1449.03,2606.99 1450.03,2599.32 1450,2591.5C 1450.17,2180.67 1450.67,1770 1451.5,1359.5 Z"/></g>
<g><path style="opacity:1" fill="#303453" d="M 2780.5,1365.5 C 2780.5,1366.17 2780.5,1366.83 2780.5,1367.5C 2702.46,1412.71 2624.79,1458.54 2547.5,1505C 2535.3,1512.87 2528.47,1524.03 2527,1538.5C 2526.67,2099.17 2526.33,2659.83 2526,3220.5C 2526.86,3236.29 2520.69,3248.45 2507.5,3257C 2397.39,3326.52 2287.72,3396.19 2178.5,3466C 2170.54,3467.18 2163.2,3465.51 2156.5,3461C 2137.65,3446.49 2117.99,3433.16 2097.5,3421C 2095.09,3419.29 2092.42,3418.46 2089.5,3418.5C 2089.97,3417.09 2090.97,3416.43 2092.5,3416.5C 2114.81,3429.63 2136.47,3443.8 2157.5,3459C 2165.33,3464.7 2173.67,3465.7 2182.5,3462C 2286.99,3394.25 2391.99,3327.25 2497.5,3261C 2506.77,3256.11 2514.27,3249.28 2520,3240.5C 2521.41,3236.94 2522.41,3233.28 2523,3229.5C 2523.01,2664.82 2523.67,2100.15 2525,1535.5C 2526.73,1525.21 2531.23,1516.38 2538.5,1509C 2543.99,1504.75 2549.66,1500.75 2555.5,1497C 2630.23,1452.64 2705.23,1408.81 2780.5,1365.5 Z"/></g>
<g><path style="opacity:1" fill="#333859" d="M 2780.5,1367.5 C 2780.5,1368.83 2780.5,1370.17 2780.5,1371.5C 2705.56,1415.31 2630.56,1459.14 2555.5,1503C 2541.24,1510.26 2532.74,1521.76 2530,1537.5C 2528.68,2102.16 2528.01,2666.83 2528,3231.5C 2526.54,3241.63 2521.71,3249.8 2513.5,3256C 2507.17,3260.33 2500.83,3264.67 2494.5,3269C 2390.16,3334.83 2286.16,3401.17 2182.5,3468C 2173.73,3471.4 2165.4,3470.4 2157.5,3465C 2134.96,3448.57 2111.63,3433.4 2087.5,3419.5C 2087.84,3418.66 2088.51,3418.33 2089.5,3418.5C 2092.42,3418.46 2095.09,3419.29 2097.5,3421C 2117.99,3433.16 2137.65,3446.49 2156.5,3461C 2163.2,3465.51 2170.54,3467.18 2178.5,3466C 2287.72,3396.19 2397.39,3326.52 2507.5,3257C 2520.69,3248.45 2526.86,3236.29 2526,3220.5C 2526.33,2659.83 2526.67,2099.17 2527,1538.5C 2528.47,1524.03 2535.3,1512.87 2547.5,1505C 2624.79,1458.54 2702.46,1412.71 2780.5,1367.5 Z"/></g>
<g><path style="opacity:1" fill="#373c60" d="M 2780.5,1371.5 C 2780.5,1372.17 2780.5,1372.83 2780.5,1373.5C 2703.39,1418.77 2626.39,1464.27 2549.5,1510C 2538.61,1517.61 2532.77,1528.11 2532,1541.5C 2531.67,2103.17 2531.33,2664.83 2531,3226.5C 2530.77,3235.87 2527.77,3244.2 2522,3251.5C 2517.12,3256.05 2511.96,3260.21 2506.5,3264C 2398.63,3331.88 2291.3,3400.54 2184.5,3470C 2176.82,3473.27 2169.15,3473.27 2161.5,3470C 2137.68,3453.25 2113.35,3437.25 2088.5,3422C 2087.21,3421.51 2085.87,3421.34 2084.5,3421.5C 2085.29,3420.6 2086.29,3419.93 2087.5,3419.5C 2111.63,3433.4 2134.96,3448.57 2157.5,3465C 2165.4,3470.4 2173.73,3471.4 2182.5,3468C 2286.16,3401.17 2390.16,3334.83 2494.5,3269C 2500.83,3264.67 2507.17,3260.33 2513.5,3256C 2521.71,3249.8 2526.54,3241.63 2528,3231.5C 2528.01,2666.83 2528.68,2102.16 2530,1537.5C 2532.74,1521.76 2541.24,1510.26 2555.5,1503C 2630.56,1459.14 2705.56,1415.31 2780.5,1371.5 Z"/></g>
<g><path style="opacity:1" fill="#3a4066" d="M 2780.5,1373.5 C 2780.5,1374.5 2780.5,1375.5 2780.5,1376.5C 2707.53,1419.32 2634.53,1462.16 2561.5,1505C 2551.39,1510.11 2543.55,1517.61 2538,1527.5C 2536.59,1531.06 2535.59,1534.72 2535,1538.5C 2533.67,2103.15 2533.01,2667.82 2533,3232.5C 2530.92,3244.26 2525.09,3253.76 2515.5,3261C 2404.17,3332 2292.83,3403 2181.5,3474C 2172.55,3476.67 2164.22,3475.34 2156.5,3470C 2133.35,3453.59 2109.68,3437.92 2085.5,3423C 2084.42,3422.53 2083.42,3422.7 2082.5,3423.5C 2082.17,3423.5 2081.83,3423.5 2081.5,3423.5C 2081.97,3422.09 2082.97,3421.43 2084.5,3421.5C 2085.87,3421.34 2087.21,3421.51 2088.5,3422C 2113.35,3437.25 2137.68,3453.25 2161.5,3470C 2169.15,3473.27 2176.82,3473.27 2184.5,3470C 2291.3,3400.54 2398.63,3331.88 2506.5,3264C 2511.96,3260.21 2517.12,3256.05 2522,3251.5C 2527.77,3244.2 2530.77,3235.87 2531,3226.5C 2531.33,2664.83 2531.67,2103.17 2532,1541.5C 2532.77,1528.11 2538.61,1517.61 2549.5,1510C 2626.39,1464.27 2703.39,1418.77 2780.5,1373.5 Z"/></g>
<g><path style="opacity:1" fill="#414873" d="M 2780.5,1379.5 C 2780.5,1380.17 2780.5,1380.83 2780.5,1381.5C 2706.19,1425.32 2631.86,1469.16 2557.5,1513C 2546.42,1519.65 2540.25,1529.49 2539,1542.5C 2538.67,2104.17 2538.33,2665.83 2538,3227.5C 2537.21,3244.92 2529.38,3258.09 2514.5,3267C 2404.13,3337.4 2293.79,3407.73 2183.5,3478C 2176.2,3481.17 2168.87,3481.17 2161.5,3478C 2136.48,3460.82 2111.14,3444.16 2085.5,3428C 2083.23,3426.88 2080.9,3426.05 2078.5,3425.5C 2078.97,3424.09 2079.97,3423.43 2081.5,3423.5C 2081.83,3423.5 2082.17,3423.5 2082.5,3423.5C 2107.78,3439.48 2132.78,3455.98 2157.5,3473C 2165.38,3477.66 2173.72,3478.66 2182.5,3476C 2289.57,3407.27 2396.9,3338.94 2504.5,3271C 2513.89,3265.61 2522.05,3258.78 2529,3250.5C 2533.63,3241.42 2536.13,3231.75 2536.5,3221.5C 2535.17,2660.46 2535.17,2099.63 2536.5,1539C 2539.71,1525.4 2547.71,1515.06 2560.5,1508C 2633.27,1465.08 2706.61,1422.25 2780.5,1379.5 Z"/></g>
<g><path style="opacity:1" fill="#454c79" d="M 2780.5,1381.5 C 2780.5,1382.5 2780.5,1383.5 2780.5,1384.5C 2707.68,1427.01 2634.68,1469.84 2561.5,1513C 2551.2,1518.63 2544.7,1527.13 2542,1538.5C 2540.67,2103.15 2540,2667.81 2540,3232.5C 2538.73,3245.54 2532.9,3256.04 2522.5,3264C 2409.43,3336.73 2296.1,3409.06 2182.5,3481C 2172.05,3483.97 2162.38,3482.31 2153.5,3476C 2128.8,3457.98 2103.13,3441.48 2076.5,3426.5C 2076.84,3425.66 2077.51,3425.33 2078.5,3425.5C 2080.9,3426.05 2083.23,3426.88 2085.5,3428C 2111.14,3444.16 2136.48,3460.82 2161.5,3478C 2168.87,3481.17 2176.2,3481.17 2183.5,3478C 2293.79,3407.73 2404.13,3337.4 2514.5,3267C 2529.38,3258.09 2537.21,3244.92 2538,3227.5C 2538.33,2665.83 2538.67,2104.17 2539,1542.5C 2540.25,1529.49 2546.42,1519.65 2557.5,1513C 2631.86,1469.16 2706.19,1425.32 2780.5,1381.5 Z"/></g>
<g><path style="opacity:1" fill="#49507f" d="M 2780.5,1384.5 C 2780.5,1385.5 2780.5,1386.5 2780.5,1387.5C 2707.82,1430.78 2634.65,1473.78 2561,1516.5C 2552.25,1521.7 2546.91,1529.37 2545,1539.5C 2543.67,2103.81 2543,2668.15 2543,3232.5C 2541.76,3235.64 2541.09,3238.97 2541,3242.5C 2538.38,3248.38 2535.38,3254.05 2532,3259.5C 2522.87,3265.64 2514.04,3272.14 2505.5,3279C 2415.16,3335.83 2325.16,3393.17 2235.5,3451C 2231.55,3453.56 2227.39,3455.72 2223,3457.5C 2214.8,3464.02 2206.3,3470.19 2197.5,3476C 2184.87,3486.51 2171.2,3488.18 2156.5,3481C 2131.23,3464.34 2105.9,3447.67 2080.5,3431C 2078.23,3429.88 2075.9,3429.05 2073.5,3428.5C 2073.97,3427.09 2074.97,3426.43 2076.5,3426.5C 2103.13,3441.48 2128.8,3457.98 2153.5,3476C 2162.38,3482.31 2172.05,3483.97 2182.5,3481C 2296.1,3409.06 2409.43,3336.73 2522.5,3264C 2532.9,3256.04 2538.73,3245.54 2540,3232.5C 2540,2667.81 2540.67,2103.15 2542,1538.5C 2544.7,1527.13 2551.2,1518.63 2561.5,1513C 2634.68,1469.84 2707.68,1427.01 2780.5,1384.5 Z"/></g>
<g><path style="opacity:1" fill="#4d5486" d="M 2780.5,1387.5 C 2780.5,1388.83 2780.5,1390.17 2780.5,1391.5C 2706.73,1433.89 2633.39,1477.05 2560.5,1521C 2553.92,1525.57 2549.76,1531.74 2548,1539.5C 2546.67,2103.81 2546,2668.15 2546,3232.5C 2545.16,3246.02 2539.66,3257.18 2529.5,3266C 2425.17,3333.17 2320.51,3399.83 2215.5,3466C 2204.61,3474.55 2192.95,3481.88 2180.5,3488C 2172.57,3489.03 2164.91,3488.03 2157.5,3485C 2129.81,3465.81 2101.48,3447.64 2072.5,3430.5C 2071.15,3430.85 2069.82,3431.18 2068.5,3431.5C 2069.66,3429.75 2071.33,3428.75 2073.5,3428.5C 2075.9,3429.05 2078.23,3429.88 2080.5,3431C 2105.9,3447.67 2131.23,3464.34 2156.5,3481C 2171.2,3488.18 2184.87,3486.51 2197.5,3476C 2206.3,3470.19 2214.8,3464.02 2223,3457.5C 2227.39,3455.72 2231.55,3453.56 2235.5,3451C 2325.16,3393.17 2415.16,3335.83 2505.5,3279C 2514.04,3272.14 2522.87,3265.64 2532,3259.5C 2535.38,3254.05 2538.38,3248.38 2541,3242.5C 2541.09,3238.97 2541.76,3235.64 2543,3232.5C 2543,2668.15 2543.67,2103.81 2545,1539.5C 2546.91,1529.37 2552.25,1521.7 2561,1516.5C 2634.65,1473.78 2707.82,1430.78 2780.5,1387.5 Z"/></g>
<g><path style="opacity:1" fill="#50588c" d="M 2780.5,1391.5 C 2780.5,1392.83 2780.5,1394.17 2780.5,1395.5C 2709.23,1436.47 2638.23,1477.97 2567.5,1520C 2561.62,1524.21 2556.79,1529.38 2553,1535.5C 2552.08,1538.1 2551.41,1540.77 2551,1543.5C 2550.67,2104.17 2550.33,2664.83 2550,3225.5C 2550.71,3243.57 2544.21,3258.4 2530.5,3270C 2416.06,3343.46 2301.39,3416.46 2186.5,3489C 2177.29,3492.76 2167.96,3492.76 2158.5,3489C 2129.67,3470.08 2100.67,3451.42 2071.5,3433C 2069.45,3432.51 2067.45,3432.68 2065.5,3433.5C 2065.97,3432.09 2066.97,3431.43 2068.5,3431.5C 2069.82,3431.18 2071.15,3430.85 2072.5,3430.5C 2101.48,3447.64 2129.81,3465.81 2157.5,3485C 2164.91,3488.03 2172.57,3489.03 2180.5,3488C 2192.95,3481.88 2204.61,3474.55 2215.5,3466C 2320.51,3399.83 2425.17,3333.17 2529.5,3266C 2539.66,3257.18 2545.16,3246.02 2546,3232.5C 2546,2668.15 2546.67,2103.81 2548,1539.5C 2549.76,1531.74 2553.92,1525.57 2560.5,1521C 2633.39,1477.05 2706.73,1433.89 2780.5,1391.5 Z"/></g>
<g><path style="opacity:1" fill="#555e95" d="M 2780.5,1395.5 C 2780.5,1398.17 2780.5,1400.83 2780.5,1403.5C 2709.53,1445.32 2638.53,1487.16 2567.5,1529C 2565,1531.5 2562.5,1534 2560,1536.5C 2559.21,1539.47 2558.54,1542.47 2558,1545.5C 2557.67,2106.17 2557.33,2666.83 2557,3227.5C 2557.91,3246.78 2551.08,3262.62 2536.5,3275C 2529.17,3280 2521.83,3285 2514.5,3290C 2408.38,3355.78 2303.05,3422.78 2198.5,3491C 2192.77,3493.18 2187.1,3495.52 2181.5,3498C 2175.83,3498.67 2170.17,3498.67 2164.5,3498C 2158.9,3495.52 2153.23,3493.18 2147.5,3491C 2122,3474.08 2096.34,3457.42 2070.5,3441C 2067.46,3438.78 2064.13,3437.28 2060.5,3436.5C 2061.9,3435.11 2063.57,3434.11 2065.5,3433.5C 2067.45,3432.68 2069.45,3432.51 2071.5,3433C 2100.67,3451.42 2129.67,3470.08 2158.5,3489C 2167.96,3492.76 2177.29,3492.76 2186.5,3489C 2301.39,3416.46 2416.06,3343.46 2530.5,3270C 2544.21,3258.4 2550.71,3243.57 2550,3225.5C 2550.33,2664.83 2550.67,2104.17 2551,1543.5C 2551.41,1540.77 2552.08,1538.1 2553,1535.5C 2556.79,1529.38 2561.62,1524.21 2567.5,1520C 2638.23,1477.97 2709.23,1436.47 2780.5,1395.5 Z"/></g>
<g><path style="opacity:1" fill="#59619a" d="M 2780.5,1403.5 C 2780.5,1406.5 2780.5,1409.5 2780.5,1412.5C 2709.89,1453.14 2639.56,1494.31 2569.5,1536C 2566.13,1539.44 2564.29,1543.61 2564,1548.5C 2563.67,2109.83 2563.33,2671.17 2563,3232.5C 2564.04,3253.92 2555.87,3270.75 2538.5,3283C 2428.86,3351.82 2319.53,3421.15 2210.5,3491C 2206.75,3495.81 2202.75,3500.48 2198.5,3505C 2196.33,3506.59 2194,3507.92 2191.5,3509C 2181.98,3511.41 2172.31,3512.07 2162.5,3511C 2158.23,3510.47 2154.23,3509.13 2150.5,3507C 2144.43,3502.6 2139.43,3497.26 2135.5,3491C 2108.6,3473.92 2081.6,3457.08 2054.5,3440.5C 2056.15,3438.67 2058.15,3437.34 2060.5,3436.5C 2064.13,3437.28 2067.46,3438.78 2070.5,3441C 2096.34,3457.42 2122,3474.08 2147.5,3491C 2153.23,3493.18 2158.9,3495.52 2164.5,3498C 2170.17,3498.67 2175.83,3498.67 2181.5,3498C 2187.1,3495.52 2192.77,3493.18 2198.5,3491C 2303.05,3422.78 2408.38,3355.78 2514.5,3290C 2521.83,3285 2529.17,3280 2536.5,3275C 2551.08,3262.62 2557.91,3246.78 2557,3227.5C 2557.33,2666.83 2557.67,2106.17 2558,1545.5C 2558.54,1542.47 2559.21,1539.47 2560,1536.5C 2562.5,1534 2565,1531.5 2567.5,1529C 2638.53,1487.16 2709.53,1445.32 2780.5,1403.5 Z"/></g>
<g><path style="opacity:1" fill="#2c304d" d="M 2780.5,1360.5 C 2780.5,1362.17 2780.5,1363.83 2780.5,1365.5C 2705.23,1408.81 2630.23,1452.64 2555.5,1497C 2549.66,1500.75 2543.99,1504.75 2538.5,1509C 2531.23,1516.38 2526.73,1525.21 2525,1535.5C 2523.67,2100.15 2523.01,2664.82 2523,3229.5C 2522.41,3233.28 2521.41,3236.94 2520,3240.5C 2514.27,3249.28 2506.77,3256.11 2497.5,3261C 2391.99,3327.25 2286.99,3394.25 2182.5,3462C 2173.67,3465.7 2165.33,3464.7 2157.5,3459C 2136.47,3443.8 2114.81,3429.63 2092.5,3416.5C 2092.97,3415.09 2093.97,3414.43 2095.5,3414.5C 2116.75,3426.13 2137.09,3439.3 2156.5,3454C 2161.77,3457.23 2167.43,3459.4 2173.5,3460.5C 2176.16,3459.67 2178.83,3458.83 2181.5,3458C 2289.66,3388.42 2398,3319.08 2506.5,3250C 2517.05,3241.37 2521.55,3230.2 2520,3216.5C 2520.33,2656.5 2520.67,2096.5 2521,1536.5C 2522.6,1522.8 2528.77,1511.63 2539.5,1503C 2619.53,1454.98 2699.86,1407.48 2780.5,1360.5 Z"/></g>
<g><path style="opacity:1" fill="#3e446c" d="M 2780.5,1376.5 C 2780.5,1377.5 2780.5,1378.5 2780.5,1379.5C 2706.61,1422.25 2633.27,1465.08 2560.5,1508C 2547.71,1515.06 2539.71,1525.4 2536.5,1539C 2535.17,2099.63 2535.17,2660.46 2536.5,3221.5C 2536.13,3231.75 2533.63,3241.42 2529,3250.5C 2522.05,3258.78 2513.89,3265.61 2504.5,3271C 2396.9,3338.94 2289.57,3407.27 2182.5,3476C 2173.72,3478.66 2165.38,3477.66 2157.5,3473C 2132.78,3455.98 2107.78,3439.48 2082.5,3423.5C 2083.42,3422.7 2084.42,3422.53 2085.5,3423C 2109.68,3437.92 2133.35,3453.59 2156.5,3470C 2164.22,3475.34 2172.55,3476.67 2181.5,3474C 2292.83,3403 2404.17,3332 2515.5,3261C 2525.09,3253.76 2530.92,3244.26 2533,3232.5C 2533.01,2667.82 2533.67,2103.15 2535,1538.5C 2535.59,1534.72 2536.59,1531.06 2538,1527.5C 2543.55,1517.61 2551.39,1510.11 2561.5,1505C 2634.53,1462.16 2707.53,1419.32 2780.5,1376.5 Z"/></g>
<g><path style="opacity:1" fill="#555e94" d="M 4058.5,2342.5 C 4058.78,2344.41 4058.45,2346.08 4057.5,2347.5C 4056.01,2350.55 4055.01,2353.88 4054.5,2357.5C 4049.39,2349.44 4042.73,2342.94 4034.5,2338C 3912.5,2264.67 3790.5,2191.33 3668.5,2118C 3652.15,2111 3636.48,2112.34 3621.5,2122C 3612.99,2127.42 3604.66,2133.09 3596.5,2139C 3595.21,2139.49 3593.87,2139.66 3592.5,2139.5C 3589.67,2138.92 3587.34,2137.59 3585.5,2135.5C 3587.31,2135.51 3588.98,2135.01 3590.5,2134C 3599.17,2128 3607.83,2122 3616.5,2116C 3626.08,2109.7 3636.58,2106.2 3648,2105.5C 3660.41,2106.53 3671.91,2110.36 3682.5,2117C 3797.66,2187.49 3913.33,2257.16 4029.5,2326C 4039.2,2331.53 4048.2,2338.03 4056.5,2345.5C 4057.18,2344.4 4057.84,2343.4 4058.5,2342.5 Z"/></g>
<g><path style="opacity:1" fill="#535b90" d="M 891.5,2226.5 C 891.5,2231.83 891.5,2237.17 891.5,2242.5C 849.275,2214.96 807.608,2186.79 766.5,2158C 758.516,2153.9 751.182,2148.9 744.5,2143C 734.761,2136.26 724.761,2129.93 714.5,2124C 702.084,2119.08 689.75,2119.41 677.5,2125C 666.572,2130.94 655.906,2137.27 645.5,2144C 644.207,2144.49 642.873,2144.66 641.5,2144.5C 636.886,2141.88 632.553,2138.88 628.5,2135.5C 629.583,2135.54 630.583,2135.87 631.5,2136.5C 642.298,2130.2 652.965,2123.7 663.5,2117C 670.816,2112.84 678.483,2109.51 686.5,2107C 702.008,2104.13 716.341,2107.13 729.5,2116C 783.107,2153.45 837.107,2190.28 891.5,2226.5 Z"/></g>
<g><path style="opacity:1" fill="#4e5688" d="M 4057.5,2347.5 C 4054.87,2361.89 4052.53,2376.22 4050.5,2390.5C 4050.66,2388.14 4050.5,2385.81 4050,2383.5C 4043.48,2390.17 4036.31,2396 4028.5,2401C 3793.33,2547.38 3558.33,2693.38 3323.5,2839C 3315.76,2842.86 3307.76,2846.2 3299.5,2849C 3287.75,2850.31 3276.75,2847.98 3266.5,2842C 3239.71,2825.61 3212.71,2809.78 3185.5,2794.5C 3186.9,2793.11 3188.57,2792.11 3190.5,2791.5C 3193.42,2791.46 3196.09,2792.29 3198.5,2794C 3223.92,2809.21 3249.26,2824.21 3274.5,2839C 3280.27,2841.38 3286.27,2842.88 3292.5,2843.5C 3295.13,2843.22 3297.63,2842.55 3300,2841.5C 3300.33,2841.83 3300.67,2842.17 3301,2842.5C 3304.07,2841.14 3307.24,2839.97 3310.5,2839C 3491.85,2728.02 3672.52,2615.69 3852.5,2502C 3909.5,2467.32 3966.5,2432.32 4023.5,2397C 4031.77,2392.11 4038.94,2385.95 4045,2378.5C 4050.03,2369.95 4049.2,2361.95 4042.5,2354.5C 4039.23,2350.54 4035.57,2347.04 4031.5,2344C 3912.12,2271.7 3792.46,2199.37 3672.5,2127C 3657.6,2118.75 3642.6,2118.41 3627.5,2126C 3619.3,2131.26 3611.3,2136.76 3603.5,2142.5C 3601.95,2143.45 3600.29,2143.79 3598.5,2143.5C 3596.12,2142.65 3594.12,2141.32 3592.5,2139.5C 3593.87,2139.66 3595.21,2139.49 3596.5,2139C 3604.66,2133.09 3612.99,2127.42 3621.5,2122C 3636.48,2112.34 3652.15,2111 3668.5,2118C 3790.5,2191.33 3912.5,2264.67 4034.5,2338C 4042.73,2342.94 4049.39,2349.44 4054.5,2357.5C 4055.01,2353.88 4056.01,2350.55 4057.5,2347.5 Z"/></g>
<g><path style="opacity:1" fill="#49507f" d="M 3190.5,2791.5 C 3190.97,2790.09 3191.97,2789.43 3193.5,2789.5C 3194.87,2789.34 3196.21,2789.51 3197.5,2790C 3223.17,2805.84 3249.17,2821.17 3275.5,2836C 3286.82,2840.67 3298.15,2840.67 3309.5,2836C 3547.57,2689.46 3785.24,2542.12 4022.5,2394C 4028.09,2389.95 4033.59,2385.79 4039,2381.5C 4042.73,2376.39 4044.4,2370.72 4044,2364.5C 4041.76,2356.93 4037.26,2351.09 4030.5,2347C 3911.67,2274.75 3792.67,2202.75 3673.5,2131C 3657.14,2121.04 3640.81,2121.04 3624.5,2131C 3617.31,2136.09 3609.98,2140.93 3602.5,2145.5C 3600.85,2145.34 3599.51,2144.67 3598.5,2143.5C 3600.29,2143.79 3601.95,2143.45 3603.5,2142.5C 3611.3,2136.76 3619.3,2131.26 3627.5,2126C 3642.6,2118.41 3657.6,2118.75 3672.5,2127C 3792.46,2199.37 3912.12,2271.7 4031.5,2344C 4035.57,2347.04 4039.23,2350.54 4042.5,2354.5C 4049.2,2361.95 4050.03,2369.95 4045,2378.5C 4038.94,2385.95 4031.77,2392.11 4023.5,2397C 3966.5,2432.32 3909.5,2467.32 3852.5,2502C 3672.52,2615.69 3491.85,2728.02 3310.5,2839C 3307.24,2839.97 3304.07,2841.14 3301,2842.5C 3300.67,2842.17 3300.33,2841.83 3300,2841.5C 3297.63,2842.55 3295.13,2843.22 3292.5,2843.5C 3286.27,2842.88 3280.27,2841.38 3274.5,2839C 3249.26,2824.21 3223.92,2809.21 3198.5,2794C 3196.09,2792.29 3193.42,2791.46 3190.5,2791.5 Z"/></g>
<g><path style="opacity:1" fill="#464d7b" d="M 891.5,2242.5 C 891.663,2244.86 891.497,2247.19 891,2249.5C 833.774,2209.94 776.274,2170.78 718.5,2132C 707.443,2125.33 695.776,2123.99 683.5,2128C 672.369,2134.07 661.369,2140.4 650.5,2147C 648.455,2147.49 646.455,2147.32 644.5,2146.5C 642.973,2146.57 641.973,2145.91 641.5,2144.5C 642.873,2144.66 644.207,2144.49 645.5,2144C 655.906,2137.27 666.572,2130.94 677.5,2125C 689.75,2119.41 702.084,2119.08 714.5,2124C 724.761,2129.93 734.761,2136.26 744.5,2143C 751.182,2148.9 758.516,2153.9 766.5,2158C 807.608,2186.79 849.275,2214.96 891.5,2242.5 Z"/></g>
<g><path style="opacity:1" fill="#424873" d="M 3193.5,2789.5 C 3195.34,2787.41 3197.67,2786.08 3200.5,2785.5C 3203.02,2785.76 3205.35,2786.59 3207.5,2788C 3230.33,2801.92 3253.33,2815.59 3276.5,2829C 3287.17,2833.67 3297.83,2833.67 3308.5,2829C 3547.38,2681.73 3785.72,2533.73 4023.5,2385C 4038.62,2374.83 4039.29,2363.83 4025.5,2352C 3907.33,2280.08 3789,2208.42 3670.5,2137C 3656.96,2128.88 3643.29,2128.55 3629.5,2136C 3623.5,2140 3617.5,2144 3611.5,2148C 3609.87,2148.49 3608.2,2148.66 3606.5,2148.5C 3604.77,2147.97 3603.44,2146.97 3602.5,2145.5C 3609.98,2140.93 3617.31,2136.09 3624.5,2131C 3640.81,2121.04 3657.14,2121.04 3673.5,2131C 3792.67,2202.75 3911.67,2274.75 4030.5,2347C 4037.26,2351.09 4041.76,2356.93 4044,2364.5C 4044.4,2370.72 4042.73,2376.39 4039,2381.5C 4033.59,2385.79 4028.09,2389.95 4022.5,2394C 3785.24,2542.12 3547.57,2689.46 3309.5,2836C 3298.15,2840.67 3286.82,2840.67 3275.5,2836C 3249.17,2821.17 3223.17,2805.84 3197.5,2790C 3196.21,2789.51 3194.87,2789.34 3193.5,2789.5 Z"/></g>
<g><path style="opacity:1" fill="#393e63" d="M 893.5,1856.5 C 893.716,1990.5 893.383,2124.5 892.5,2258.5C 891.662,2258.84 891.328,2259.51 891.5,2260.5C 833.862,2221.34 776.195,2182.18 718.5,2143C 705.58,2133.84 692.247,2133.17 678.5,2141C 671.833,2145 665.167,2149 658.5,2153C 656.803,2153.38 655.137,2153.22 653.5,2152.5C 649.975,2151.24 646.975,2149.24 644.5,2146.5C 646.455,2147.32 648.455,2147.49 650.5,2147C 661.369,2140.4 672.369,2134.07 683.5,2128C 695.776,2123.99 707.443,2125.33 718.5,2132C 776.274,2170.78 833.774,2209.94 891,2249.5C 891.497,2247.19 891.663,2244.86 891.5,2242.5C 891.5,2237.17 891.5,2231.83 891.5,2226.5C 891.407,2103 892.074,1979.66 893.5,1856.5 Z"/></g>
<g><path style="opacity:1" fill="#383e62" d="M 3200.5,2785.5 C 3200.97,2784.09 3201.97,2783.43 3203.5,2783.5C 3205.93,2782.03 3208.26,2782.19 3210.5,2784C 3232,2797.25 3253.67,2810.25 3275.5,2823C 3285.23,2828.01 3295.23,2828.67 3305.5,2825C 3313.99,2820.59 3322.33,2815.92 3330.5,2811C 3558,2669.08 3785.67,2527.42 4013.5,2386C 4018.13,2383.09 4022.3,2379.59 4026,2375.5C 4029.33,2370.5 4029.33,2365.5 4026,2360.5C 4021.47,2355.49 4016.31,2351.33 4010.5,2348C 3896.17,2279 3781.83,2210 3667.5,2141C 3653.75,2133.17 3640.42,2133.84 3627.5,2143C 3622.81,2147.17 3617.48,2150.01 3611.5,2151.5C 3609.63,2150.74 3607.96,2149.74 3606.5,2148.5C 3608.2,2148.66 3609.87,2148.49 3611.5,2148C 3617.5,2144 3623.5,2140 3629.5,2136C 3643.29,2128.55 3656.96,2128.88 3670.5,2137C 3789,2208.42 3907.33,2280.08 4025.5,2352C 4039.29,2363.83 4038.62,2374.83 4023.5,2385C 3785.72,2533.73 3547.38,2681.73 3308.5,2829C 3297.83,2833.67 3287.17,2833.67 3276.5,2829C 3253.33,2815.59 3230.33,2801.92 3207.5,2788C 3205.35,2786.59 3203.02,2785.76 3200.5,2785.5 Z"/></g>
<g><path style="opacity:1" fill="#333859" d="M 3203.5,2783.5 C 3203.97,2782.09 3204.97,2781.43 3206.5,2781.5C 3208.53,2781.34 3210.53,2781.5 3212.5,2782C 3235.01,2796.09 3258.01,2809.42 3281.5,2822C 3291.83,2825.17 3301.83,2824.17 3311.5,2819C 3546.22,2672.92 3780.89,2526.92 4015.5,2381C 4019.09,2378.08 4021.92,2374.58 4024,2370.5C 4024.67,2368.5 4024.67,2366.5 4024,2364.5C 4020.88,2359.34 4016.71,2355.18 4011.5,2352C 3897.57,2283.73 3783.9,2215.06 3670.5,2146C 3658.69,2137.5 3646.35,2136.5 3633.5,2143C 3628.83,2146 3624.17,2149 3619.5,2152C 3617.53,2152.5 3615.53,2152.66 3613.5,2152.5C 3612.51,2152.67 3611.84,2152.34 3611.5,2151.5C 3617.48,2150.01 3622.81,2147.17 3627.5,2143C 3640.42,2133.84 3653.75,2133.17 3667.5,2141C 3781.83,2210 3896.17,2279 4010.5,2348C 4016.31,2351.33 4021.47,2355.49 4026,2360.5C 4029.33,2365.5 4029.33,2370.5 4026,2375.5C 4022.3,2379.59 4018.13,2383.09 4013.5,2386C 3785.67,2527.42 3558,2669.08 3330.5,2811C 3322.33,2815.92 3313.99,2820.59 3305.5,2825C 3295.23,2828.67 3285.23,2828.01 3275.5,2823C 3253.67,2810.25 3232,2797.25 3210.5,2784C 3208.26,2782.19 3205.93,2782.03 3203.5,2783.5 Z"/></g>
<g><path style="opacity:1" fill="#2d3250" d="M 3206.5,2781.5 C 3207.9,2780.11 3209.57,2779.11 3211.5,2778.5C 3214.26,2777.02 3216.92,2777.19 3219.5,2779C 3240.01,2792.09 3261.01,2804.42 3282.5,2816C 3292.75,2818.88 3302.42,2817.54 3311.5,2812C 3541.5,2669 3771.5,2526 4001.5,2383C 4007.72,2379.61 4012.39,2374.78 4015.5,2368.5C 4012.81,2361.64 4008.14,2356.47 4001.5,2353C 3887.43,2283.94 3773.1,2215.27 3658.5,2147C 3651.38,2144.8 3644.38,2145.13 3637.5,2148C 3632.67,2150.58 3628,2153.42 3623.5,2156.5C 3623.17,2155.83 3622.83,2155.17 3622.5,2154.5C 3621.26,2155.25 3619.93,2155.58 3618.5,2155.5C 3616.57,2154.89 3614.9,2153.89 3613.5,2152.5C 3615.53,2152.66 3617.53,2152.5 3619.5,2152C 3624.17,2149 3628.83,2146 3633.5,2143C 3646.35,2136.5 3658.69,2137.5 3670.5,2146C 3783.9,2215.06 3897.57,2283.73 4011.5,2352C 4016.71,2355.18 4020.88,2359.34 4024,2364.5C 4024.67,2366.5 4024.67,2368.5 4024,2370.5C 4021.92,2374.58 4019.09,2378.08 4015.5,2381C 3780.89,2526.92 3546.22,2672.92 3311.5,2819C 3301.83,2824.17 3291.83,2825.17 3281.5,2822C 3258.01,2809.42 3235.01,2796.09 3212.5,2782C 3210.53,2781.5 3208.53,2781.34 3206.5,2781.5 Z"/></g>
<g><path style="opacity:1" fill="#272b44" d="M 3211.5,2778.5 C 3213.82,2776.34 3216.49,2774.67 3219.5,2773.5C 3221.2,2773.34 3222.87,2773.51 3224.5,2774C 3244.77,2787.26 3265.77,2799.26 3287.5,2810C 3296.26,2811.14 3304.26,2809.14 3311.5,2804C 3441.5,2722.67 3571.5,2641.33 3701.5,2560C 3702.83,2559.67 3704.17,2559.33 3705.5,2559C 3799.16,2499.83 3893.16,2441.17 3987.5,2383C 3992.79,2379.77 3997.62,2375.94 4002,2371.5C 4002.79,2368.37 4002.46,2365.37 4001,2362.5C 3998.11,2359.64 3994.94,2357.14 3991.5,2355C 3881.7,2289.26 3772.03,2223.26 3662.5,2157C 3656.18,2153.81 3649.51,2152.81 3642.5,2154C 3637.58,2156.45 3632.58,2158.61 3627.5,2160.5C 3624.01,2159.59 3621.01,2157.92 3618.5,2155.5C 3619.93,2155.58 3621.26,2155.25 3622.5,2154.5C 3622.83,2155.17 3623.17,2155.83 3623.5,2156.5C 3628,2153.42 3632.67,2150.58 3637.5,2148C 3644.38,2145.13 3651.38,2144.8 3658.5,2147C 3773.1,2215.27 3887.43,2283.94 4001.5,2353C 4008.14,2356.47 4012.81,2361.64 4015.5,2368.5C 4012.39,2374.78 4007.72,2379.61 4001.5,2383C 3771.5,2526 3541.5,2669 3311.5,2812C 3302.42,2817.54 3292.75,2818.88 3282.5,2816C 3261.01,2804.42 3240.01,2792.09 3219.5,2779C 3216.92,2777.19 3214.26,2777.02 3211.5,2778.5 Z"/></g>
<g><path style="opacity:1" fill="#23263d" d="M 891.5,2260.5 C 891.328,2259.51 891.662,2258.84 892.5,2258.5C 892.833,2277.18 892.5,2295.85 891.5,2314.5C 814.927,2262.72 738.594,2210.72 662.5,2158.5C 663.496,2158.41 664.329,2158.75 665,2159.5C 673.204,2153.81 682.037,2149.31 691.5,2146C 697.362,2145.05 703.028,2145.71 708.5,2148C 770.111,2188.05 830.945,2229.22 891,2271.5C 891.499,2267.85 891.665,2264.18 891.5,2260.5 Z"/></g>
<g><path style="opacity:1" fill="#23263c" d="M 3219.5,2773.5 C 3452.6,2628.11 3685.93,2482.94 3919.5,2338C 3822.26,2278.57 3724.93,2219.41 3627.5,2160.5C 3632.58,2158.61 3637.58,2156.45 3642.5,2154C 3649.51,2152.81 3656.18,2153.81 3662.5,2157C 3772.03,2223.26 3881.7,2289.26 3991.5,2355C 3994.94,2357.14 3998.11,2359.64 4001,2362.5C 4002.46,2365.37 4002.79,2368.37 4002,2371.5C 3997.62,2375.94 3992.79,2379.77 3987.5,2383C 3893.16,2441.17 3799.16,2499.83 3705.5,2559C 3704.17,2559.33 3702.83,2559.67 3701.5,2560C 3571.5,2641.33 3441.5,2722.67 3311.5,2804C 3304.26,2809.14 3296.26,2811.14 3287.5,2810C 3265.77,2799.26 3244.77,2787.26 3224.5,2774C 3222.87,2773.51 3221.2,2773.34 3219.5,2773.5 Z"/></g>
<g><path style="opacity:1" fill="#2e3250" d="M 891.5,2260.5 C 891.665,2264.18 891.499,2267.85 891,2271.5C 830.945,2229.22 770.111,2188.05 708.5,2148C 703.028,2145.71 697.362,2145.05 691.5,2146C 682.037,2149.31 673.204,2153.81 665,2159.5C 664.329,2158.75 663.496,2158.41 662.5,2158.5C 658.975,2157.24 655.975,2155.24 653.5,2152.5C 655.137,2153.22 656.803,2153.38 658.5,2153C 665.167,2149 671.833,2145 678.5,2141C 692.247,2133.17 705.58,2133.84 718.5,2143C 776.195,2182.18 833.862,2221.34 891.5,2260.5 Z"/></g>
<g><path style="opacity:1" fill="#344353" d="M 900.5,2113.5 C 900.833,2185.84 900.5,2258.17 899.5,2330.5C 898.893,2330.38 898.56,2330.04 898.5,2329.5C 899.167,2257.5 899.833,2185.5 900.5,2113.5 Z"/></g>
<g><path style="opacity:1" fill="#182133" d="M 3178.5,2113.5 C 3179.17,2185.5 3179.83,2257.5 3180.5,2329.5C 3180.44,2330.04 3180.11,2330.38 3179.5,2330.5C 3178.5,2258.17 3178.17,2185.84 3178.5,2113.5 Z"/></g>
<g><path style="opacity:0.018" fill="#000000" d="M 4060.5,2328.5 C 4081.53,2343.43 4087.36,2363.09 4078,2387.5C 4070.46,2400.21 4059.96,2409.54 4046.5,2415.5C 4046.5,2414.83 4046.5,2414.17 4046.5,2413.5C 4048.57,2406.09 4049.9,2398.42 4050.5,2390.5C 4052.53,2376.22 4054.87,2361.89 4057.5,2347.5C 4058.45,2346.08 4058.78,2344.41 4058.5,2342.5C 4059.6,2337.91 4060.27,2333.24 4060.5,2328.5 Z"/></g>
<g><path style="opacity:1" fill="#576098" d="M 4050.5,2390.5 C 4049.9,2398.42 4048.57,2406.09 4046.5,2413.5C 4045.25,2411.66 4045.25,2409.83 4046.5,2408C 4045.83,2407.33 4045.17,2407.33 4044.5,2408C 3833.7,2538.24 3623.36,2669.24 3413.5,2801C 3381.87,2819.48 3350.53,2838.48 3319.5,2858C 3298.52,2867.34 3278.19,2866 3258.5,2854C 3230.07,2836.12 3201.07,2819.29 3171.5,2803.5C 3175.82,2800 3180.49,2797 3185.5,2794.5C 3212.71,2809.78 3239.71,2825.61 3266.5,2842C 3276.75,2847.98 3287.75,2850.31 3299.5,2849C 3307.76,2846.2 3315.76,2842.86 3323.5,2839C 3558.33,2693.38 3793.33,2547.38 4028.5,2401C 4036.31,2396 4043.48,2390.17 4050,2383.5C 4050.5,2385.81 4050.66,2388.14 4050.5,2390.5 Z"/></g>
</svg>
